<?xml version="1.0" standalone="no"?><!DOCTYPE svg PUBLIC "-//W3C//DTD SVG 1.1//EN" "http://www.w3.org/Graphics/SVG/1.1/DTD/svg11.dtd" ><svg xmlns="http://www.w3.org/2000/svg"><metadata>Generated by Glyphter</metadata><defs><font id="Glyphter" horiz-adv-x="0"><font-face units-per-em="1024" ascent="1024" descent="0" font-family="Glyphter" font-weight="normal" /><missing-glyph horiz-adv-x="0" /><glyph unicode="&#x0041;" d="M534.565,0C534.565,0,490.043,0,490.043,0C440.847,0,401,39.847,401,89.043C401,89.043,401,133.565,401,133.565C401,182.762,440.847,222.609,490.043,222.609C490.043,222.609,534.565,222.609,534.565,222.609C583.762,222.609,623.609,182.762,623.609,133.565C623.609,133.565,623.609,89.043,623.609,89.043C623.609,39.847,583.762,0,534.565,0C534.565,0,534.565,0,534.565,0M534.565,400.696C534.565,400.696,490.043,400.696,490.043,400.696C440.847,400.696,401,440.587,401,489.739C401,489.739,401,534.261,401,534.261C401,583.457,440.847,623.304,490.043,623.304C490.043,623.304,534.565,623.304,534.565,623.304C583.762,623.304,623.609,583.457,623.609,534.261C623.609,534.261,623.609,489.739,623.609,489.739C623.609,440.587,583.762,400.696,534.565,400.696C534.565,400.696,534.565,400.696,534.565,400.696M534.565,801.391C534.565,801.391,490.043,801.391,490.043,801.391C440.847,801.391,401,841.238,401,890.435C401,890.435,401,934.957,401,934.957C401,984.153,440.847,1024,490.043,1024C490.043,1024,534.565,1024,534.565,1024C583.762,1024,623.609,984.153,623.609,934.957C623.609,934.957,623.609,890.435,623.609,890.435C623.609,841.238,583.762,801.391,534.565,801.391C534.565,801.391,534.565,801.391,534.565,801.391" class="icon-actionIcon"/><glyph unicode="&#x0042;" d="M985.276,473.241C985.276,473.241,551.213,473.241,551.213,473.241C551.213,473.241,551.213,39.178,551.213,39.178C551.213,17.814,533.899,0.5,512.535,0.5C512.535,0.5,511.325,0.5,511.325,0.5C489.962,0.5,472.648,17.814,472.648,39.178C472.648,39.178,472.648,473.241,472.648,473.241C472.648,473.241,38.678,473.241,38.678,473.241C17.314,473.241,0,490.555,0,511.918C0,511.918,0,513.128,0,513.128C0,534.492,17.314,551.806,38.678,551.806C38.678,551.806,472.694,551.806,472.694,551.806C472.694,551.806,472.694,985.822,472.694,985.822C472.694,1007.186,490.008,1024.5,511.372,1024.5C511.372,1024.5,512.582,1024.5,512.582,1024.5C533.945,1024.5,551.259,1007.186,551.259,985.822C551.259,985.822,551.259,551.806,551.259,551.806C551.259,551.806,985.322,551.806,985.322,551.806C1006.686,551.806,1024,534.492,1024,513.128C1024,513.128,1024,511.918,1024,511.918C1023.953,490.555,1006.639,473.241,985.276,473.241C985.276,473.241,985.276,473.241,985.276,473.241" class="icon-add"/><glyph unicode="&#x0043;" d="M882.935,523.247C865.324,454.936,832.235,395.452,783.667,344.837C783.667,344.837,512.343,0,512.343,0C512.343,0,240.976,344.837,240.976,344.837C192.408,395.452,159.319,454.936,141.708,523.247C124.097,591.515,124.097,659.825,141.708,728.136C159.319,796.447,192.579,856.059,241.488,907.057C290.354,958.013,347.706,992.51,413.544,1010.504C479.424,1028.499,545.262,1028.499,611.099,1010.504C676.937,992.51,734.289,958.013,783.198,907.057C832.064,856.059,865.324,796.447,882.935,728.136C900.546,659.825,900.546,591.515,882.935,523.247C882.935,523.247,882.935,523.247,882.935,523.247M800.595,704.385C786.865,758.454,760.939,805.657,722.861,845.996C684.783,886.376,640.095,913.667,588.798,927.909C537.501,942.151,486.204,942.151,434.907,927.909C383.61,913.667,338.88,886.376,300.801,845.996C262.723,805.657,236.797,758.454,223.067,704.385C209.336,650.274,209.336,596.205,223.067,542.179C236.797,488.068,262.595,440.992,300.417,400.91C300.417,400.91,511.831,127.923,511.831,127.923C511.831,127.923,723.245,400.91,723.245,400.91C761.067,440.992,786.865,488.068,800.595,542.179C814.326,596.205,814.326,650.274,800.595,704.385C800.595,704.385,800.595,704.385,800.595,704.385M512.471,469.093C418.277,469.093,341.907,545.462,341.907,639.656C341.907,733.85,418.277,810.22,512.471,810.22C606.664,810.22,683.034,733.85,683.034,639.656C683.034,545.462,606.664,469.093,512.471,469.093C512.471,469.093,512.471,469.093,512.471,469.093M512.471,724.938C465.352,724.938,427.189,686.774,427.189,639.656C427.189,592.581,465.352,554.374,512.471,554.374C559.589,554.374,597.752,592.581,597.752,639.656C597.752,686.774,559.589,724.938,512.471,724.938C512.471,724.938,512.471,724.938,512.471,724.938" class="icon-adressIcon"/><glyph unicode="&#x0044;" d="M1024,0C1024,0,186.182,0,186.182,0C186.182,0,186.182,186.182,186.182,186.182C186.182,186.182,0,186.182,0,186.182C0,186.182,0,1024,0,1024C0,1024,837.818,1024,837.818,1024C837.818,1024,837.818,837.818,837.818,837.818C837.818,837.818,1024,837.818,1024,837.818C1024,837.818,1024,0,1024,0C1024,0,1024,0,1024,0M744.727,930.909C744.727,930.909,93.091,930.909,93.091,930.909C93.091,930.909,93.091,279.273,93.091,279.273M93.091,279.273C93.091,279.273,744.727,279.273,744.727,279.273C744.727,279.273,744.727,930.909,744.727,930.909M930.909,744.727C930.909,744.727,837.818,744.727,837.818,744.727C837.818,744.727,837.818,186.182,837.818,186.182C837.818,186.182,279.273,186.182,279.273,186.182C279.273,186.182,279.273,93.091,279.273,93.091C279.273,93.091,930.909,93.091,930.909,93.091C930.909,93.091,930.909,744.727,930.909,744.727C930.909,744.727,930.909,744.727,930.909,744.727" class="icon-adsImageMore"/><glyph unicode="&#x0045;" d="M925.458,225.993C909.972,190.217,891.642,157.286,870.404,127.009C841.455,85.735,817.752,57.165,799.485,41.299C771.168,15.258,740.828,1.921,708.339,1.162C685.015,1.162,656.888,7.799,624.146,21.263C591.297,34.663,561.109,41.299,533.506,41.299C504.557,41.299,473.509,34.663,440.299,21.263C407.039,7.799,380.245,0.783,359.76,0.088C328.605,-1.24,297.55,12.477,266.553,41.299C246.769,58.555,222.023,88.137,192.379,130.043C160.573,174.795,134.423,226.688,113.938,285.851C91.998,349.754,81,411.635,81,471.543C81,540.168,95.829,599.356,125.53,648.956C148.873,688.796,179.927,720.223,218.793,743.293C257.66,766.364,299.655,778.121,344.881,778.873C369.627,778.873,402.078,771.219,442.404,756.175C482.617,741.081,508.438,733.427,519.758,733.427C528.222,733.427,556.905,742.377,605.531,760.221C651.515,776.768,690.325,783.62,722.118,780.921C808.271,773.968,872.996,740.007,916.04,678.821C838.99,632.136,800.876,566.747,801.634,482.864C802.329,417.526,826.032,363.154,872.617,319.983C893.728,299.946,917.305,284.46,943.536,273.462C937.847,256.965,931.842,241.163,925.458,225.993C925.458,225.993,925.458,225.993,925.458,225.993C925.458,225.993,925.458,225.993,925.458,225.993M727.87,1003.514C727.87,952.303,709.161,904.486,671.868,860.228C626.864,807.614,572.429,777.211,513.399,782.008C512.647,788.152,512.211,794.618,512.211,801.413C512.211,850.576,533.613,903.191,571.62,946.21C590.595,967.991,614.728,986.101,643.993,1000.55C673.195,1014.784,700.817,1022.654,726.796,1024C727.554,1017.155,727.87,1010.309,727.87,1003.514C727.87,1003.514,727.87,1003.514,727.87,1003.514C727.87,1003.514,727.87,1003.514,727.87,1003.514" class="icon-apple"/><glyph unicode="&#x0046;" d="M1011.91,727.193C1011.91,727.193,544.996,239.129,544.996,239.129C536.08,230.593,524.225,226.989,512.559,227.558C500.799,226.989,489.038,230.593,480.028,239.129C480.028,239.129,13.019,727.193,13.019,727.193C-3.673,743.221,-3.673,769.114,13.019,785.142C29.712,801.171,56.837,801.171,73.624,785.142C73.624,785.142,512.464,326.574,512.464,326.574C512.464,326.574,951.305,785.142,951.305,785.142C967.997,801.171,995.122,801.171,1011.91,785.142C1028.697,769.208,1028.697,743.221,1011.91,727.193C1011.91,727.193,1011.91,727.193,1011.91,727.193" class="icon-arrowdown"/><glyph unicode="&#x0047;" d="M727.227,1011.98C727.227,1011.98,239.13,544.939,239.13,544.939C230.593,536.023,226.989,524.167,227.558,512.5C226.989,500.739,230.593,488.977,239.13,480.061C239.13,480.061,727.227,13.02,727.227,13.02C743.162,-3.673,769.246,-3.673,785.181,13.02C801.21,29.809,801.21,56.841,785.181,73.629C785.181,73.629,326.486,512.5,326.486,512.5C326.486,512.5,785.181,951.371,785.181,951.371C801.21,968.064,801.21,995.286,785.181,1011.98C769.151,1028.673,743.162,1028.673,727.227,1011.98C727.227,1011.98,727.227,1011.98,727.227,1011.98" class="icon-arrowleft"/><glyph unicode="&#x0048;" d="M297.476,1011.48C297.476,1011.48,785.573,544.439,785.573,544.439C794.11,535.428,797.714,523.667,797.145,512C797.714,500.239,794.11,488.477,785.573,479.561C785.573,479.561,297.476,12.52,297.476,12.52C281.446,-4.173,255.457,-4.173,239.522,12.52C223.493,29.309,223.493,56.341,239.522,73.129C239.522,73.129,698.217,512.095,698.217,512.095C698.217,512.095,239.522,950.871,239.522,950.871C223.493,967.564,223.493,994.786,239.522,1011.48C255.457,1028.173,281.446,1028.173,297.476,1011.48C297.476,1011.48,297.476,1011.48,297.476,1011.48" class="icon-arrowright"/><glyph unicode="&#x0049;" d="M1011.41,297.566C1011.41,297.566,544.401,785.629,544.401,785.629C535.486,794.165,523.725,797.769,511.964,797.2C500.299,797.769,488.443,794.165,479.528,785.629C479.528,785.629,12.519,297.566,12.519,297.566C-4.173,281.537,-4.173,255.55,12.519,239.521C29.307,223.493,56.337,223.493,73.124,239.521C73.124,239.521,511.964,698.184,511.964,698.184C511.964,698.184,950.899,239.521,950.899,239.521C967.592,223.493,994.717,223.493,1011.41,239.521C1028.197,255.55,1028.197,281.537,1011.41,297.566C1011.41,297.566,1011.41,297.566,1011.41,297.566" class="icon-arrowup"/><glyph unicode="&#x004a;" d="M1024,481.882C1024,481.882,469.414,481.882,469.414,481.882C469.414,481.882,639.789,311.537,639.789,311.537C639.789,311.537,597.203,268.951,597.203,268.951C597.203,268.951,384.211,481.882,384.211,481.882C384.211,481.882,384.211,481.882,384.211,481.882C384.211,481.882,361.412,481.882,361.412,481.882C361.412,481.882,361.412,542.118,361.412,542.118C361.412,542.118,384.211,542.118,384.211,542.118C384.211,542.118,384.211,542.118,384.211,542.118C384.211,542.118,597.173,755.08,597.173,755.08C597.173,755.08,639.759,712.493,639.759,712.493C639.759,712.493,469.414,542.118,469.414,542.118C469.414,542.118,1024,542.118,1024,542.118C1024,542.118,1024,481.882,1024,481.882C1024,481.882,1024,481.882,1024,481.882M60.235,60.235C60.235,60.235,632.471,60.235,632.471,60.235C632.471,60.235,632.471,0,632.471,0C632.471,0,60.235,0,60.235,0C60.235,0,0,0,0,0C0,0,0,60.235,0,60.235C0,60.235,0,963.765,0,963.765C0,963.765,0,1024,0,1024C0,1024,60.235,1024,60.235,1024C60.235,1024,632.471,1024,632.471,1024C632.471,1024,632.471,963.765,632.471,963.765C632.471,963.765,60.235,963.765,60.235,963.765C60.235,963.765,60.235,60.235,60.235,60.235C60.235,60.235,60.235,60.235,60.235,60.235" class="icon-back"/><glyph unicode="&#x004b;" d="M841.495,478.475C899.119,501.143,960,512.5,1024,512.5C1024,576.5,1012.829,637.335,990.487,695.005C968.145,752.675,936.308,804.852,894.976,851.491C894.976,851.491,557.009,512.5,557.009,512.5C557.009,512.5,685.009,383.523,685.009,383.523C731.648,424.157,783.825,455.854,841.495,478.475C841.495,478.475,841.495,478.475,841.495,478.475M512,557.509C512,557.509,850.991,895.523,850.991,895.523C804.305,936.157,752.128,967.854,694.505,990.522C636.835,1013.143,576,1024.5,512,1024.5C512,960.5,500.829,899.619,478.487,841.995C456.145,784.325,424.308,732.148,382.976,685.509C382.976,685.509,512,557.509,512,557.509C512,557.509,512,557.509,512,557.509M338.013,731.496C410.019,814.161,446.65,910.138,448,1019.473C343.971,1006.813,252.649,965.48,173.987,895.523C173.987,895.523,338.013,731.496,338.013,731.496C338.013,731.496,338.013,731.496,338.013,731.496M128.977,850.513C58.973,771.851,17.315,680.483,4.003,576.5C113.99,577.85,210.339,614.481,293.004,686.487C293.004,686.487,128.977,850.513,128.977,850.513C128.977,850.513,128.977,850.513,128.977,850.513M338.991,641.524C292.305,600.145,240.128,568.308,182.505,546.013C124.835,523.671,64,512.5,0,512.5C0,448.5,11.311,387.665,33.978,329.995C56.646,272.325,88.297,220.148,128.977,173.509C128.977,173.509,466.991,512.5,466.991,512.5C466.991,512.5,338.991,641.524,338.991,641.524C338.991,641.524,338.991,641.524,338.991,641.524M512,467.491C512,467.491,173.009,129.477,173.009,129.477C219.648,88.145,271.825,56.355,329.495,34.013C387.165,11.671,448,0.5,512,0.5C512,64.5,523.171,125.335,545.513,183.005C567.855,240.675,599.645,292.805,641.024,339.491C641.024,339.491,512,467.491,512,467.491C512,467.491,512,467.491,512,467.491M685.987,293.504C613.981,210.141,577.303,113.838,576,4.503C679.983,17.815,771.305,59.473,850.013,129.477C850.013,129.477,685.987,293.504,685.987,293.504C685.987,293.504,685.987,293.504,685.987,293.504M730.996,338.513C730.996,338.513,894.976,174.533,894.976,174.533C964.98,253.195,1006.639,344.517,1019.997,448.547C909.964,447.15,813.661,410.519,730.996,338.513C730.996,338.513,730.996,338.513,730.996,338.513C730.996,338.513,730.996,338.513,730.996,338.513" class="icon-basketball"/><glyph unicode="&#x004c;" d="M225.5,510.247C225.5,510.247,735.247,0.5,735.247,0.5C735.247,0.5,798.954,64.207,798.954,64.207C798.954,64.207,350.662,512.5,350.662,512.5C350.662,512.5,798.954,960.793,798.954,960.793C798.954,960.793,735.247,1024.5,735.247,1024.5C735.247,1024.5,225.5,514.753,225.5,514.753C225.5,514.753,227.753,512.5,227.753,512.5C227.753,512.5,225.5,510.247,225.5,510.247C225.5,510.247,225.5,510.247,225.5,510.247" class="icon-bigarrowleft"/><glyph unicode="&#x004d;" d="M798.954,510.247C798.954,510.247,289.207,0.5,289.207,0.5C289.207,0.5,225.5,64.207,225.5,64.207C225.5,64.207,673.793,512.5,673.793,512.5C673.793,512.5,225.5,960.793,225.5,960.793C225.5,960.793,289.207,1024.5,289.207,1024.5C289.207,1024.5,798.954,514.753,798.954,514.753C798.954,514.753,796.702,512.5,796.702,512.5C796.702,512.5,798.954,510.247,798.954,510.247C798.954,510.247,798.954,510.247,798.954,510.247" class="icon-bigarrowright"/><glyph unicode="&#x004e;" d="M1007.476,513.489C996.492,572.509,980.48,629.667,959.488,685.009C938.496,740.352,917.318,768,896,768C896,768,896,896,896,896C914.013,896,929.14,902.144,941.521,914.479C953.856,926.813,960,941.801,960,959.488C960,977.175,953.809,992.303,941.521,1005.009C929.14,1017.623,913.967,1024,896,1024C896,1024,704,1024,704,1024C686.639,1024,671.651,1017.623,658.991,1005.009C646.33,992.303,640,977.175,640,959.488C640,941.801,646.33,926.813,658.991,914.479C671.651,902.144,686.639,896,704,896C704,896,704,749.987,704,749.987C684.684,738.676,669.137,723.316,657.501,704C645.818,684.637,640,663.319,640,640C640,640,576,640,576,640C576,657.315,569.856,672.303,557.521,685.009C545.14,697.67,529.967,704,512,704C493.987,704,478.86,697.809,466.525,685.475C454.144,673.14,448,658.013,448,640C448,640,384,640,384,640C384,663.319,378.182,684.637,366.499,704C354.816,723.363,339.316,738.676,320,749.987C320,749.987,320,896,320,896C338.013,896,353.14,902.144,365.475,914.479C377.809,926.86,384,941.847,384,959.488C384,977.129,377.809,992.303,365.475,1005.009C353.14,1017.623,338.013,1024,320,1024C320,1024,128,1024,128,1024C110.639,1024,95.651,1017.623,82.991,1005.009C70.33,992.303,64,977.175,64,959.488C64,941.801,70.33,926.813,82.991,914.479C95.651,902.144,110.639,896,128,896C128,896,128,768,128,768C106.636,768,85.504,740.305,64.512,685.009C43.473,629.667,27.508,572.509,16.477,513.489C5.492,454.516,0,411.322,0,384C0,384,0,128,0,128C0,92.672,12.521,62.511,37.516,37.516C62.511,12.521,92.672,0,128,0C128,0,256,0,256,0C291.328,0,321.489,12.474,346.484,37.516C371.479,62.511,384,92.672,384,128C384,128,384,512,384,512C384,512,448,512,448,512C448,493.987,454.144,478.813,466.525,466.479C478.86,454.144,494.033,448,512,448C530.013,448,545.14,454.144,557.521,466.479C569.856,478.813,576,493.987,576,512C576,512,640,512,640,512C640,512,640,128,640,128C640,92.672,652.521,62.511,677.516,37.516C702.464,12.521,732.625,0,768,0C768,0,896,0,896,0C931.328,0,961.489,12.474,986.484,37.516C1011.479,62.511,1024,92.672,1024,128C1024,128,1024,384,1024,384C1024,411.322,1018.461,454.516,1007.476,513.489C1007.476,513.489,1007.476,513.489,1007.476,513.489" class="icon-binoculars"/><glyph unicode="&#x004f;" d="M213.333,1024C331.136,1024,426.667,928.512,426.667,810.667C426.667,692.821,331.136,597.333,213.333,597.333C95.531,597.333,0,692.864,0,810.667C0,928.469,95.531,1024,213.333,1024C213.333,1024,213.333,1024,213.333,1024M213.333,938.667C284.032,938.667,341.333,881.365,341.333,810.667C341.333,739.968,284.032,682.667,213.333,682.667C142.635,682.667,85.333,739.968,85.333,810.667C85.333,881.365,142.635,938.667,213.333,938.667C213.333,938.667,213.333,938.667,213.333,938.667M341.333,426.667C459.136,426.667,554.667,331.179,554.667,213.333C554.667,95.531,459.136,0,341.333,0C223.488,0,128,95.531,128,213.333C128,331.179,223.488,426.667,341.333,426.667C341.333,426.667,341.333,426.667,341.333,426.667M341.333,341.333C412.032,341.333,469.333,284.032,469.333,213.333C469.333,142.635,412.032,85.333,341.333,85.333C270.635,85.333,213.333,142.635,213.333,213.333C213.333,284.032,270.635,341.333,341.333,341.333C341.333,341.333,341.333,341.333,341.333,341.333M810.667,853.333C928.469,853.333,1024,757.803,1024,640C1024,522.197,928.469,426.667,810.667,426.667C692.864,426.667,597.333,522.197,597.333,640C597.333,757.803,692.864,853.333,810.667,853.333C810.667,853.333,810.667,853.333,810.667,853.333M810.667,768C881.365,768,938.667,710.699,938.667,640C938.667,569.301,881.365,512,810.667,512C739.968,512,682.667,569.301,682.667,640C682.667,710.699,739.968,768,810.667,768C810.667,768,810.667,768,810.667,768" class="icon-bonus"/><glyph unicode="&#x0050;" d="M796.444,398.222C670.777,398.222,568.889,500.11,568.889,625.778C568.889,751.445,670.777,853.333,796.444,853.333C922.112,853.333,1024,751.445,1024,625.778C1024,500.11,922.112,398.222,796.444,398.222C796.444,398.222,796.444,398.222,796.444,398.222M796.444,739.556C733.582,739.556,682.667,688.64,682.667,625.778C682.667,562.916,733.582,512,796.444,512C859.307,512,910.222,562.916,910.222,625.778C910.222,688.64,859.25,739.556,796.444,739.556C796.444,739.556,796.444,739.556,796.444,739.556M341.333,0C215.666,0,113.778,101.888,113.778,227.556C113.778,353.223,215.666,455.111,341.333,455.111C467.001,455.111,568.889,353.223,568.889,227.556C568.889,101.888,467.001,0,341.333,0C341.333,0,341.333,0,341.333,0M341.333,341.333C278.471,341.333,227.556,290.418,227.556,227.556C227.556,164.693,278.471,113.778,341.333,113.778C404.196,113.778,455.111,164.693,455.111,227.556C455.111,290.418,404.196,341.333,341.333,341.333C341.333,341.333,341.333,341.333,341.333,341.333M227.556,568.889C101.888,568.889,0,670.777,0,796.444C0,922.112,101.888,1024,227.556,1024C353.223,1024,455.111,922.112,455.111,796.444C455.111,670.777,353.223,568.889,227.556,568.889C227.556,568.889,227.556,568.889,227.556,568.889M227.556,910.222C164.693,910.222,113.778,859.307,113.778,796.444C113.778,733.582,164.693,682.667,227.556,682.667C290.361,682.667,341.333,733.582,341.333,796.444C341.333,859.307,290.361,910.222,227.556,910.222C227.556,910.222,227.556,910.222,227.556,910.222" class="icon-bonussmall"/><glyph unicode="&#x0051;" d="M1004.963,18.525C1017.623,30.86,1024,46.033,1024,64C1024,64,1024,448,1024,448C1024,448,640,448,640,448C640,448,640,384,640,384C640,366.639,633.809,351.651,621.475,338.991C609.14,326.33,593.967,320,576,320C576,320,448,320,448,320C430.639,320,415.651,326.33,402.991,338.991C390.33,351.651,384,366.685,384,384C384,384,384,448,384,448C384,448,0,448,0,448C0,448,0,64,0,64C0,46.685,6.33,31.697,18.991,19.037C31.651,6.33,46.639,0,64,0C64,0,960,0,960,0C977.315,0,992.303,6.191,1004.963,18.525C1004.963,18.525,1004.963,18.525,1004.963,18.525M512.512,512C494.825,512,479.651,505.856,466.991,493.521C454.33,481.187,448,466.153,448,448.512C448,430.871,454.33,415.697,466.991,403.037C479.651,390.33,494.825,384.047,512.512,384.047C530.153,384.047,545.187,390.377,557.521,403.037C569.856,415.697,576,430.871,576,448.512C576,466.199,569.809,481.187,557.521,493.521C545.14,505.856,530.153,512,512.512,512C512.512,512,512.512,512,512.512,512M621.475,557.521C633.809,545.187,640,530.013,640,512C640,512,1024,512,1024,512C1024,512,1024,704,1024,704C1024,722.013,1017.67,737.14,1005.009,749.475C992.303,761.856,977.315,768,960,768C960,768,768,768,768,768C768,768,768,832,768,832C768,885.295,749.335,930.63,712.006,968.006C674.63,1005.335,629.295,1024,576,1024C576,1024,448,1024,448,1024C394.659,1024,349.324,1005.335,311.994,968.006C274.665,930.676,256,885.295,256,832C256,832,256,768,256,768C256,768,64,768,64,768C45.987,768,30.813,761.856,18.525,749.475C6.144,737.14,0,722.013,0,704C0,704,0,512,0,512C0,512,384,512,384,512C384,530.013,390.33,545.187,402.991,557.521C415.651,569.856,430.639,576,448,576C448,576,576,576,576,576C593.967,576,609.14,569.856,621.475,557.521C621.475,557.521,621.475,557.521,621.475,557.521M640,768C640,768,384,768,384,768C384,768,384,832,384,832C384,849.967,390.33,865.14,402.991,877.475C415.651,889.856,430.639,896,448,896C448,896,576,896,576,896C594.013,896,609.14,889.809,621.475,877.475C633.809,865.14,640,849.967,640,832C640,832,640,768,640,768C640,768,640,768,640,768" class="icon-briefcase"/><glyph unicode="&#x0052;" d="M703.166,999.517C699.489,1015.808,690.319,1024,675.657,1024C675.657,1024,350.677,1024,350.677,1024C336.015,1024,326.52,1015.808,322.191,999.517C317.816,983.18,320.003,970.985,328.661,963.025C328.661,963.025,451.634,821.015,451.634,821.015C451.634,821.015,330.616,250.042,330.616,250.042C324.611,235.334,321.446,225.187,321.121,219.555C320.748,213.876,323.96,206.708,330.616,198.051C330.616,198.051,485.612,11.078,485.612,11.078C493.013,3.677,501.81,0,512.19,0C522.523,0,530.994,3.677,537.697,11.031C537.697,11.031,693.67,198.004,693.67,198.004C698.325,202.659,701.164,207.686,702.188,212.992C703.166,218.345,703.026,223.139,701.676,227.514C700.326,231.843,697.673,239.337,693.67,249.996C693.67,249.996,572.652,819.991,572.652,819.991C572.652,819.991,696.649,963.025,696.649,963.025C704.655,970.985,706.843,983.18,703.166,999.517C703.166,999.517,703.166,999.517,703.166,999.517" class="icon-business"/><glyph unicode="&#x0053;" d="M1006.497,259.504C1018.135,278.589,1024,299.63,1024,322.672C1024,322.672,1024,512.175,1024,512.175C1024,530.609,1016.319,551.789,1001.004,575.855C985.643,599.875,966.325,622.731,943.004,644.423C943.004,644.423,895.988,828.015,895.988,828.015C895.988,862.881,883.466,892.673,858.469,917.344C833.519,942.015,803.308,954.351,767.977,954.351C767.977,954.351,255.977,954.351,255.977,954.351C220.646,954.351,190.481,942.015,165.484,917.344C140.487,892.673,128.012,862.881,128.012,828.015C128.012,828.015,80.996,644.423,80.996,644.423C57.675,622.731,38.31,599.875,22.996,575.855C7.634,551.789,0,530.609,0,512.175C0,512.175,0,322.672,0,322.672C0,299.63,5.819,278.589,17.503,259.504C29.14,240.418,44.641,225.29,64.006,214.118C64.006,214.118,64.006,133.168,64.006,133.168C64.006,115.386,70.337,100.397,82.998,88.247C95.66,76.051,110.835,70,128.477,70C146.119,70,161.108,76.051,173.491,88.247C185.826,100.397,191.971,115.386,191.971,133.168C191.971,133.168,191.971,196.336,191.971,196.336C191.971,196.336,831.983,196.336,831.983,196.336C831.983,196.336,831.983,133.168,831.983,133.168C831.983,115.386,838.313,100.397,850.975,88.247C863.636,76.051,878.812,70,896.454,70C914.096,70,929.132,76.051,941.467,88.247C953.803,100.397,959.994,115.386,959.994,133.168C959.994,133.168,959.994,214.118,959.994,214.118C979.312,225.29,994.813,240.418,1006.497,259.504C1006.497,259.504,1006.497,259.504,1006.497,259.504M191.505,449.008C209.148,449.008,224.323,442.77,237.031,430.295C249.693,417.773,256.023,402.83,256.023,385.374C256.023,367.918,249.693,353.115,237.031,340.966C224.369,328.77,209.194,322.672,191.505,322.672C173.817,322.672,158.828,328.77,146.492,340.966C134.156,353.115,128.012,367.918,128.012,385.374C128.012,402.784,134.156,417.773,146.492,430.295C158.828,442.723,173.817,449.008,191.505,449.008C191.505,449.008,191.505,449.008,191.505,449.008M831.983,638.511C831.983,620.729,825.791,605.787,813.502,593.637C801.167,581.441,785.991,575.39,767.977,575.39C767.977,575.39,255.977,575.39,255.977,575.39C237.962,575.39,222.787,581.488,210.498,593.637C198.162,605.787,192.017,620.729,192.017,638.511C192.017,638.511,223.997,764.847,223.997,764.847C223.997,781.931,230.328,796.734,242.989,809.302C255.651,821.777,270.64,828.062,288.003,828.062C288.003,828.062,735.997,828.062,735.997,828.062C754.012,828.062,769.14,821.824,781.476,809.302C793.812,796.78,799.956,781.977,799.956,764.847C799.956,764.847,831.983,638.511,831.983,638.511C831.983,638.511,831.983,638.511,831.983,638.511M895.988,385.374C895.988,367.918,889.797,353.115,877.462,340.966C865.126,328.77,850.137,322.672,832.448,322.672C814.759,322.672,799.584,328.77,786.922,340.966C774.261,353.115,767.93,367.918,767.93,385.374C767.93,402.784,774.261,417.773,786.922,430.295C799.584,442.77,814.759,449.008,832.448,449.008C850.09,449.008,865.079,442.77,877.462,430.295C889.797,417.726,895.988,402.784,895.988,385.374C895.988,385.374,895.988,385.374,895.988,385.374" class="icon-car"/><glyph unicode="&#x0054;" d="M967.111,625.778C967.111,625.778,56.889,625.778,56.889,625.778C25.486,625.778,0,651.264,0,682.667C0,714.069,25.486,739.556,56.889,739.556C56.889,739.556,341.333,739.556,341.333,739.556C341.333,739.556,341.333,967.111,341.333,967.111C341.333,998.514,366.82,1024,398.222,1024C429.625,1024,455.111,998.514,455.111,967.111C455.111,967.111,455.111,739.556,455.111,739.556C455.111,739.556,568.889,739.556,568.889,739.556C568.889,739.556,568.889,967.111,568.889,967.111C568.889,998.514,594.375,1024,625.778,1024C657.18,1024,682.667,998.514,682.667,967.111C682.667,967.111,682.667,739.556,682.667,739.556C682.667,739.556,967.111,739.556,967.111,739.556C998.514,739.556,1024,714.069,1024,682.667C1024,651.264,998.514,625.778,967.111,625.778C967.111,625.778,967.111,625.778,967.111,625.778M56.889,568.889C56.889,568.889,967.111,568.889,967.111,568.889C998.514,568.889,1024,543.403,1024,512C1024,512,910.222,56.889,910.222,56.889C910.222,25.486,884.736,0,853.333,0C853.333,0,170.667,0,170.667,0C139.264,0,113.778,25.486,113.778,56.889C113.778,56.889,0,512,0,512C0,543.403,25.486,568.889,56.889,568.889C56.889,568.889,56.889,568.889,56.889,568.889M227.556,170.667C227.556,139.264,253.042,113.778,284.444,113.778C284.444,113.778,739.556,113.778,739.556,113.778C770.958,113.778,796.444,139.264,796.444,170.667C796.444,170.667,853.333,398.222,853.333,398.222C853.333,429.625,827.847,455.111,796.444,455.111C796.444,455.111,227.556,455.111,227.556,455.111C196.153,455.111,170.667,429.625,170.667,398.222C170.667,398.222,227.556,170.667,227.556,170.667C227.556,170.667,227.556,170.667,227.556,170.667" class="icon-cartsmall"/><glyph unicode="&#x0055;" d="M1020.88,39.461C1020.88,39.461,981.751,0,981.751,0C981.751,0,512.41,472.569,512.41,472.569C512.41,472.569,43.129,0.06,43.129,0.06C43.129,0.06,4,39.522,4,39.522C4,39.522,473.25,512,473.25,512C473.25,512,4,984.478,4,984.478C4,984.478,43.129,1023.94,43.129,1023.94C43.129,1023.94,512.41,551.431,512.41,551.431C512.41,551.431,981.751,1024,981.751,1024C981.751,1024,1020.88,984.539,1020.88,984.539C1020.88,984.539,551.6,512,551.6,512C551.6,512,1020.88,39.461,1020.88,39.461C1020.88,39.461,1020.88,39.461,1020.88,39.461" class="icon-closePopupIcon"/><glyph unicode="&#x0056;" d="M512,0C229.248,0,0,229.248,0,512C0,794.795,229.248,1024,512,1024C794.752,1024,1024,794.795,1024,512C1024,229.248,794.752,0,512,0C512,0,512,0,512,0M512,938.667C276.352,938.667,85.333,747.648,85.333,512C85.333,276.352,276.352,85.333,512,85.333C747.648,85.333,938.667,276.352,938.667,512C938.667,747.648,747.648,938.667,512,938.667C512,938.667,512,938.667,512,938.667M512,213.333C488.448,213.333,469.333,232.448,469.333,256C469.333,279.552,488.448,298.667,512,298.667C535.552,298.667,554.667,279.552,554.667,256C554.667,232.448,535.552,213.333,512,213.333C512,213.333,512,213.333,512,213.333M512,341.333C488.448,341.333,469.333,360.448,469.333,384C469.333,384,469.333,768,469.333,768C469.333,791.552,488.448,810.667,512,810.667C535.552,810.667,554.667,791.552,554.667,768C554.667,768,554.667,384,554.667,384C554.667,360.448,535.552,341.333,512,341.333C512,341.333,512,341.333,512,341.333" class="icon-complain"/><glyph unicode="&#x0057;" d="M967.111,114C967.111,114,56.889,114,56.889,114C25.486,114,0,139.486,0,170.889C0,170.889,0,853.556,0,853.556C0,884.958,25.486,910.444,56.889,910.444C56.889,910.444,967.111,910.444,967.111,910.444C998.514,910.444,1024,884.958,1024,853.556C1024,853.556,1024,170.889,1024,170.889C1024,139.486,998.514,114,967.111,114C967.111,114,967.111,114,967.111,114M910.222,739.778C910.222,771.18,884.736,796.667,853.333,796.667C853.333,796.667,170.667,796.667,170.667,796.667C139.264,796.667,113.778,771.18,113.778,739.778C113.778,739.778,113.778,682.889,113.778,682.889C113.778,682.889,910.222,682.889,910.222,682.889C910.222,682.889,910.222,739.778,910.222,739.778C910.222,739.778,910.222,739.778,910.222,739.778M910.222,569.111C910.222,569.111,113.778,569.111,113.778,569.111C113.778,569.111,113.778,284.667,113.778,284.667C113.778,253.264,139.264,227.778,170.667,227.778C170.667,227.778,853.333,227.778,853.333,227.778C884.736,227.778,910.222,253.264,910.222,284.667C910.222,284.667,910.222,569.111,910.222,569.111C910.222,569.111,910.222,569.111,910.222,569.111M284.444,341.556C284.444,341.556,227.556,341.556,227.556,341.556C196.153,341.556,170.667,367.042,170.667,398.444C170.667,429.847,196.153,455.333,227.556,455.333C227.556,455.333,284.444,455.333,284.444,455.333C315.847,455.333,341.333,429.847,341.333,398.444C341.333,367.042,315.847,341.556,284.444,341.556C284.444,341.556,284.444,341.556,284.444,341.556" class="icon-creditcardsmall"/><glyph unicode="&#x0058;" d="M1005.718,939.795C1005.718,939.795,578.209,512.286,578.209,512.286C578.209,512.286,1004.778,85.718,1004.778,85.718C1028.745,61.751,1028.557,32.99,1010.276,14.709C1010.276,14.709,1009.242,13.675,1009.242,13.675C990.962,-4.653,962.201,-4.794,938.234,19.174C938.234,19.174,511.665,445.742,511.665,445.742C511.665,445.742,85.097,19.174,85.097,19.174C61.13,-4.841,32.181,-3.901,14.135,14.192C14.135,14.192,13.101,15.179,13.101,15.179C-4.945,33.225,-5.462,61.751,18.553,85.718C18.553,85.718,445.121,512.286,445.121,512.286C445.121,512.286,18.506,938.855,18.506,938.855C-5.462,962.822,-4.898,992.616,13.43,1010.944C13.43,1010.944,13.477,1011.508,13.477,1011.508C31.805,1029.742,61.083,1029.413,85.097,1005.399C85.097,1005.399,511.665,578.83,511.665,578.83C511.665,578.83,939.174,1006.339,939.174,1006.339C963.141,1030.306,992.277,1028.943,1010.323,1010.897C1010.323,1010.897,1010.699,1010.756,1010.699,1010.756C1028.745,992.71,1029.685,963.762,1005.718,939.795C1005.718,939.795,1005.718,939.795,1005.718,939.795" class="icon-delete"/><glyph unicode="&#x0059;" d="M683,938.667C683,938.667,555,938.667,555,938.667C555,938.667,555,85.333,555,85.333C555,85.333,683,85.333,683,85.333C706.552,85.333,725.667,66.219,725.667,42.667C725.667,19.115,706.552,0,683,0C683,0,341.667,0,341.667,0C318.115,0,299,19.115,299,42.667C299,66.219,318.115,85.333,341.667,85.333C341.667,85.333,469.667,85.333,469.667,85.333C469.667,85.333,469.667,938.667,469.667,938.667C469.667,938.667,341.667,938.667,341.667,938.667C318.115,938.667,299,957.781,299,981.333C299,1004.885,318.115,1024,341.667,1024C341.667,1024,469.667,1024,469.667,1024C469.667,1024,469.667,1024,469.667,1024C469.667,1024,555,1024,555,1024C555,1024,555,1024,555,1024C555,1024,683,1024,683,1024C706.552,1024,725.667,1004.885,725.667,981.333C725.667,957.781,706.552,938.667,683,938.667C683,938.667,683,938.667,683,938.667" class="icon-edit"/><glyph unicode="&#x005a;" d="M1024,771.021C1024,771.021,1024,832,1024,832C1024,850.022,1017.651,865.178,1005.005,877.517C992.358,889.805,977.306,896,960,896C960,896,64,896,64,896C46.643,896,31.642,889.805,18.995,877.466C6.349,865.126,0,849.971,0,832C0,832,0,771.021,0,771.021C0,771.021,512,512,512,512C512,512,1024,771.021,1024,771.021C1024,771.021,1024,771.021,1024,771.021M0,696.986C0,696.986,0,192,0,192C0,174.643,6.349,159.642,18.995,146.995C31.642,134.298,46.643,128,64,128C64,128,960,128,960,128C977.306,128,992.358,134.298,1005.005,146.995C1017.651,159.642,1024,174.643,1024,192C1024,192,1024,696.986,1024,696.986C1024,696.986,544,448,544,448C544,448,480,448,480,448C480,448,0,696.986,0,696.986C0,696.986,0,696.986,0,696.986" class="icon-emailalt"/><glyph unicode="&#x0061;" d="M384,512C384,512,256,512,256,512C256,512,256,687.982,256,687.982C256,687.982,384,687.982,384,687.982C384,687.982,384,791.991,384,791.991C384,870.619,398.629,928.987,428.032,966.949C457.289,1004.983,512,1024,592.018,1024C592.018,1024,768,1024,768,1024C768,1024,768,848.018,768,848.018C768,848.018,645.998,848.018,645.998,848.018C615.351,848.018,595.968,842.679,587.995,832C580.023,821.321,576,802.67,576,775.973C576,775.973,576,687.982,576,687.982C576,687.982,768,687.982,768,687.982C768,687.982,750.007,512,750.007,512C750.007,512,576,512,576,512C576,512,576,0,576,0C576,0,384,0,384,0C384,0,384,512,384,512C384,512,384,512,384,512" class="icon-fb"/><glyph unicode="&#x0062;" d="M964.236,0C964.236,0,964.236,0,964.236,0C964.236,0,60.734,0.03,60.734,0.03C60.734,0.03,0.5,0.03,0.5,0.03C0.5,0.03,0.5,60.264,0.5,60.264C0.5,60.264,0.5,963.766,0.5,963.766C0.5,963.766,0.5,1024,0.5,1024C0.5,1024,60.734,1024,60.734,1024C60.734,1024,1024.47,1024,1024.47,1024C1024.47,1024,1024.47,1023.97,1024.47,1023.97C1024.47,1023.97,1024.47,1023.97,1024.47,1023.97C1024.47,1023.97,1024.47,0,1024.47,0C1024.47,0,964.236,0,964.236,0C964.236,0,964.236,0,964.236,0M964.236,963.766C964.236,963.766,60.734,963.766,60.734,963.766C60.734,963.766,60.734,60.264,60.734,60.264C60.734,60.264,964.236,60.264,964.236,60.264C964.236,60.264,964.236,963.766,964.236,963.766C964.236,963.766,964.236,963.766,964.236,963.766M843.769,783.036C843.769,783.036,827.055,783.036,827.055,783.036C827.055,783.036,542.602,471.809,542.602,471.809C542.602,471.809,542.602,180.701,542.602,180.701C542.602,180.701,482.368,180.701,482.368,180.701C482.368,180.701,482.368,471.809,482.368,471.809C482.368,471.809,197.915,783.036,197.915,783.036C197.915,783.036,181.201,783.036,181.201,783.036C181.201,783.036,181.201,843.269,181.201,843.269C181.201,843.269,843.769,843.269,843.769,843.269C843.769,843.269,843.769,783.036,843.769,783.036C843.769,783.036,843.769,783.036,843.769,783.036M278.177,783.036C278.177,783.036,512.485,526.682,512.485,526.682C512.485,526.682,746.793,783.036,746.793,783.036C746.793,783.036,278.177,783.036,278.177,783.036C278.177,783.036,278.177,783.036,278.177,783.036" class="icon-filter"/><glyph unicode="&#x0063;" d="M981.333,16C981.333,16,42.667,16,42.667,16C19.115,16,0,35.115,0,58.667C0,58.667,0,826.667,0,826.667C0,850.219,19.115,869.333,42.667,869.333C42.667,869.333,387.669,869.333,387.669,869.333C387.669,869.333,321.067,935.936,321.067,935.936C304.384,952.619,304.384,979.627,321.067,996.267C337.749,1012.907,364.757,1012.907,381.397,996.267C381.397,996.267,508.331,869.333,508.331,869.333C508.331,869.333,515.669,869.333,515.669,869.333C515.669,869.333,642.603,996.267,642.603,996.267C659.285,1012.907,686.293,1012.907,702.933,996.267C719.616,979.584,719.616,952.576,702.933,935.936C702.933,935.936,636.331,869.333,636.331,869.333C636.331,869.333,981.333,869.333,981.333,869.333C1004.885,869.333,1024,850.219,1024,826.667C1024,826.667,1024,58.667,1024,58.667C1024,35.115,1004.885,16,981.333,16C981.333,16,981.333,16,981.333,16M85.333,144C85.333,120.448,104.448,101.333,128,101.333C128,101.333,469.333,101.333,469.333,101.333C469.333,101.333,469.333,400,469.333,400C469.333,400,85.333,400,85.333,400C85.333,400,85.333,144,85.333,144C85.333,144,85.333,144,85.333,144M85.333,741.333C85.333,741.333,85.333,485.333,85.333,485.333C85.333,485.333,469.333,485.333,469.333,485.333C469.333,485.333,469.333,784,469.333,784C469.333,784,128,784,128,784C104.448,784,85.333,764.928,85.333,741.333C85.333,741.333,85.333,741.333,85.333,741.333M938.667,741.333C938.667,764.885,919.552,784,896,784C896,784,554.667,784,554.667,784C554.667,784,554.667,485.333,554.667,485.333C554.667,485.333,938.667,485.333,938.667,485.333C938.667,485.333,938.667,741.333,938.667,741.333C938.667,741.333,938.667,741.333,938.667,741.333M938.667,400C938.667,400,554.667,400,554.667,400C554.667,400,554.667,101.333,554.667,101.333C554.667,101.333,896,101.333,896,101.333C919.552,101.333,938.667,120.448,938.667,144C938.667,144,938.667,400,938.667,400C938.667,400,938.667,400,938.667,400" class="icon-freeweek"/><glyph unicode="&#x0064;" d="M1014.458,585.995C1020.788,592.325,1024,599.819,1024,608.477C1024,608.477,1024,672.477,1024,672.477C1024,681.786,1020.835,689.466,1014.505,695.47C1008.175,701.475,1000.681,704.453,992.023,704.453C992.023,704.453,576.047,704.453,576.047,704.453C576.047,704.453,576.047,576.453,576.047,576.453C576.047,576.453,992.023,576.453,992.023,576.453C1000.634,576.5,1008.128,579.619,1014.458,585.995C1014.458,585.995,1014.458,585.995,1014.458,585.995M730.484,805.969C755.479,830.964,768,861.125,768,896.5C768,931.828,755.526,961.989,730.484,986.984C705.489,1011.979,675.328,1024.453,640,1024.453C625.99,1024.453,613.329,1022.824,602.019,1019.473C590.662,1016.122,580.701,1012.119,572.044,1007.464C563.386,1002.81,555.892,995.828,549.562,986.472C543.232,977.117,537.879,968.599,533.551,960.965C529.222,953.285,525.731,942.301,523.031,927.965C520.378,913.629,518.191,901.806,516.515,892.497C514.839,883.141,513.676,869.829,513.024,852.515C512.326,835.153,512,821.608,512,811.973C512,802.292,512,787.816,512,768.453C489.332,791.819,472.669,817.14,462.01,844.462C451.305,871.831,445.161,895.29,443.485,914.979C441.809,934.621,438.644,953.285,433.99,970.973C429.335,988.613,418.164,1001.972,400.477,1011.002C382.836,1019.985,355.98,1024.453,320,1024.453C284.672,1024.453,254.511,1011.979,229.516,986.984C204.474,961.989,192,931.828,192,896.5C192,861.125,204.474,831.011,229.516,806.016C254.511,780.974,284.672,768.453,320,768.453C320,768.453,640,768.453,640,768.453C675.328,768.453,705.489,780.974,730.484,805.969C730.484,805.969,730.484,805.969,730.484,805.969M384,896.965C384,879.325,377.67,864.151,365.009,851.491C352.303,838.784,337.129,832.5,319.488,832.5C301.801,832.5,286.813,838.83,274.479,851.491C262.144,864.151,256,879.325,256,896.965C256,914.653,262.144,929.64,274.525,941.975C286.86,954.309,301.847,960.453,319.535,960.453C337.175,960.453,352.349,954.263,365.009,941.975C377.67,929.64,384,914.653,384,896.965C384,896.965,384,896.965,384,896.965M704,896.965C704,879.325,697.67,864.151,685.009,851.491C672.349,838.784,657.361,832.5,640,832.5C622.639,832.5,607.651,838.83,594.991,851.491C582.33,864.151,576,879.325,576,896.965C576,914.653,582.144,929.64,594.525,941.975C606.86,954.309,621.847,960.453,639.535,960.453C657.175,960.453,672.349,954.263,685.056,941.975C697.623,929.64,704,914.653,704,896.965C704,896.965,704,896.965,704,896.965M448,704.453C448,704.453,32.023,704.453,32.023,704.453C23.366,704.453,15.872,701.475,9.542,695.47C3.165,689.466,0,681.786,0,672.477C0,672.477,0,608.477,0,608.477C0,599.819,3.165,592.325,9.495,585.995C15.825,579.619,23.319,576.5,32.023,576.5C32.023,576.5,448,576.5,448,576.5C448,576.5,448,704.453,448,704.453C448,704.453,448,704.453,448,704.453M448,512.5C448,512.5,64,512.5,64,512.5C64,512.5,64,64.5,64,64.5C64,47.139,70.144,32.151,82.479,19.491C94.813,6.83,109.987,0.5,128,0.5C128,0.5,448,0.5,448,0.5C448,0.5,448,512.5,448,512.5C448,512.5,448,512.5,448,512.5M576,512.5C576,512.5,576,0.5,576,0.5C576,0.5,896,0.5,896,0.5C914.013,0.5,929.14,6.83,941.521,19.491C953.856,32.151,960,47.139,960,64.5C960,64.5,960,512.5,960,512.5C960,512.5,576,512.5,576,512.5C576,512.5,576,512.5,576,512.5" class="icon-gift"/><glyph unicode="&#x0065;" d="M65.132,1024C44.652,1017.172,31,994.988,31,964.268C31,964.268,31,512,31,512C31,512,31,59.732,31,59.732C31,29.012,42.948,6.824,63.428,0C63.428,0,529.348,512,529.348,512C529.348,512,65.132,1024,65.132,1024C65.132,1024,65.132,1024,65.132,1024M145.348,998.4C145.348,998.4,558.36,542.72,558.36,542.72C558.36,542.72,696.6,694.612,696.6,694.612C696.6,694.612,145.348,998.4,145.348,998.4C145.348,998.4,145.348,998.4,145.348,998.4M737.56,674.132C737.56,674.132,589.08,512,589.08,512C589.08,512,737.56,349.868,737.56,349.868C737.56,349.868,940.652,460.8,940.652,460.8C978.2,481.28,993.56,491.52,993.56,512C993.56,532.48,978.2,542.72,940.652,563.2C940.652,563.2,737.56,674.132,737.56,674.132C737.56,674.132,737.56,674.132,737.56,674.132M560.068,479.572C560.068,479.572,145.348,23.892,145.348,23.892C145.348,23.892,700.012,327.68,700.012,327.68C700.012,327.68,560.068,479.572,560.068,479.572C560.068,479.572,560.068,479.572,560.068,479.572" class="icon-googleplay"/><glyph unicode="&#x0066;" d="M602.694,531.122C602.694,531.122,309.569,531.122,309.569,531.122C309.569,531.122,309.916,447.156,309.916,447.156C309.916,447.156,507.56,447.156,507.56,447.156C484.185,344.924,412.039,282.253,315.212,282.253C188.209,282.253,85.243,385.209,85.243,512.212C85.243,639.216,188.209,742.182,315.212,742.182C375.606,742.182,430.524,718.876,471.551,680.798C471.551,680.798,536.41,736.707,536.41,736.707C479.502,792.783,401.416,827.425,315.212,827.425C141.122,827.425,0,686.303,0,512.212C0,338.122,141.122,197,315.212,197C482.393,197,603.189,324.509,603.189,498.589C603.189,498.589,602.694,531.122,602.694,531.122C602.694,531.122,602.694,531.122,602.694,531.122M704.788,527.647C704.788,527.647,704.788,450.453,704.788,450.453C704.788,450.453,1024,450.453,1024,450.453C1024,450.453,1024,527.647,1024,527.647C1024,527.647,704.788,527.647,704.788,527.647M825.802,648.661C825.802,648.661,825.802,329.449,825.802,329.449C825.802,329.449,902.996,329.449,902.996,329.449C902.996,329.449,902.996,648.661,902.996,648.661C902.996,648.661,825.802,648.661,825.802,648.661" class="icon-googleplus"/><glyph unicode="&#x0067;" d="M1011.845,13.155C994.971,-3.718,967.653,-3.718,950.822,13.155C950.822,13.155,705.137,258.841,705.137,258.841C535.621,119.966,285.101,129.59,126.892,287.799C-41.631,456.322,-41.631,729.584,126.892,898.108C295.416,1066.631,568.678,1066.631,737.201,898.108C895.453,739.899,905.077,489.379,766.159,319.863C766.159,319.863,1011.845,74.178,1011.845,74.178C1028.675,57.347,1028.675,30.029,1011.845,13.155C1011.845,13.155,1011.845,13.155,1011.845,13.155M676.179,837.085C541.36,971.904,322.733,971.904,187.915,837.085C53.096,702.267,53.096,483.64,187.915,348.821C322.733,214.002,541.36,214.002,676.179,348.821C810.998,483.64,810.998,702.267,676.179,837.085C676.179,837.085,676.179,837.085,676.179,837.085M584.602,440.398C567.729,423.524,540.411,423.524,523.58,440.398C523.58,440.398,432.047,531.931,432.047,531.931C432.047,531.931,340.513,440.398,340.513,440.398C323.64,423.524,296.322,423.524,279.491,440.398C262.617,457.271,262.617,484.589,279.491,501.42C279.491,501.42,371.025,592.953,371.025,592.953C371.025,592.953,279.448,684.487,279.448,684.487C262.574,701.36,262.574,728.678,279.448,745.509C296.322,762.383,323.64,762.383,340.47,745.509C340.47,745.509,432.047,653.975,432.047,653.975C432.047,653.975,523.58,745.509,523.58,745.509C540.454,762.383,567.772,762.383,584.602,745.509C601.476,728.635,601.476,701.317,584.602,684.487C584.602,684.487,493.069,592.953,493.069,592.953C493.069,592.953,584.602,501.42,584.602,501.42C601.476,484.546,601.476,457.228,584.602,440.398C584.602,440.398,584.602,440.398,584.602,440.398" class="icon-hide"/><glyph unicode="&#x0068;" d="M1005.074,561.419C1005.074,561.419,561.488,1005.005,561.488,1005.005C548.173,1018.32,531.832,1024.652,512.511,1024C493.19,1024.652,476.896,1018.32,463.534,1005.005C463.534,1005.005,19.995,561.419,19.995,561.419C7.332,548.756,1,533.299,1,514.956C1,496.66,7.471,481.017,20.46,468.028C33.45,455.039,49.092,448.567,67.389,448.567C85.685,448.567,101.189,454.899,113.852,467.562C113.852,467.562,128.843,482.507,128.843,482.507C128.843,482.507,128.843,63.921,128.843,63.921C128.843,46.603,134.988,31.612,147.326,18.995C159.663,6.332,174.794,0,192.764,0C192.764,0,384.575,0,384.575,0C384.575,0,384.575,287.763,384.575,287.763C384.575,296.422,387.741,303.918,394.073,310.249C400.404,316.581,407.9,319.747,416.559,319.747C416.559,319.747,608.37,319.747,608.37,319.747C617.029,319.747,624.525,316.581,630.857,310.249C637.188,303.918,640.354,296.422,640.354,287.763C640.354,287.763,640.354,0,640.354,0C640.354,0,832.165,0,832.165,0C850.136,0,865.313,6.332,877.604,18.995C889.941,31.612,896.086,46.603,896.086,63.921C896.086,63.921,896.086,482.507,896.086,482.507C896.086,482.507,911.077,467.562,911.077,467.562C923.741,454.899,939.197,448.567,957.54,448.567C975.837,448.567,991.526,455.085,1004.515,468.028C1017.504,481.017,1023.976,496.66,1023.976,514.956C1024.022,533.299,1017.691,548.756,1005.074,561.419C1005.074,561.419,1005.074,561.419,1005.074,561.419C1005.074,561.419,1005.074,561.419,1005.074,561.419" class="icon-home"/><glyph unicode="&#x0069;" d="M858.484,37.516C883.479,62.557,896,92.672,896,128C896,128,896,896,896,896C896,931.328,883.526,961.489,858.484,986.484C833.489,1011.479,803.328,1024,768,1024C768,1024,256,1024,256,1024C220.672,1024,190.511,1011.479,165.516,986.531C140.521,961.536,128,931.328,128,896C128,896,128,128,128,128C128,92.672,140.521,62.511,165.516,37.516C190.511,12.521,220.672,0,256,0C256,0,768,0,768,0C803.328,0.047,833.489,12.521,858.484,37.516C858.484,37.516,858.484,37.516,858.484,37.516M448,127.535C448,145.175,454.33,160.349,466.991,173.056C479.651,185.716,494.825,192.047,512.512,192.047C530.153,192.047,545.187,185.716,557.521,173.056C569.856,160.396,576,145.222,576,127.535C576,109.847,569.856,94.86,557.521,82.525C545.187,70.191,530.199,64,512.512,64C494.825,64,479.651,70.144,466.991,82.525C454.33,94.86,448,109.847,448,127.535C448,127.535,448,127.535,448,127.535M832,256.047C832,256.047,192,256.047,192,256.047C192,256.047,192,896,192,896C192,896,832,896,832,896C832,896,832,256.047,832,256.047C832,256.047,832,256.047,832,256.047M640,833.024C640,833.024,256,833.024,256,833.024C256,833.024,256,320.047,256,320.047C256,320.047,640,833.024,640,833.024C640,833.024,640,833.024,640,833.024" class="icon-iphone"/><glyph unicode="&#x006a;" d="M511.502,873.038C525.243,888.018,538.184,902.018,551.202,916.018C613.203,982.778,691.205,1004.961,779.508,996.42C899.99,984.82,969.992,911.618,1005.874,802.377C1036.934,707.675,1026.313,613.893,987.455,522.912C951.831,439.528,898.55,368.007,837.688,301.746C741.248,196.742,630.225,108.823,513.982,27.02C512.872,26.434,511.723,25.929,510.542,25.5C480.961,47.321,450.541,69.2,420.659,91.921C326.177,163.922,236.655,241.242,159.293,331.785C102.092,398.788,52.491,470.809,24.109,555.15C-11.77,661.792,-10.032,766.933,45.831,866.916C81.832,931.379,135.494,977.2,209.336,991.399C312.896,1011.399,406.079,991.281,479.22,908.776C489.681,896.978,500.363,885.358,511.502,873.038C511.502,873.038,511.502,873.038,511.502,873.038" class="icon-like"/><glyph unicode="&#x006b;" d="M280.736,918.562C337.63,918.562,381.836,898.591,419.856,855.703C427.312,847.294,434.922,838.919,442.282,830.82C445.7,827.06,449.156,823.258,452.657,819.386C452.657,819.386,511.57,754.226,511.57,754.226C511.57,754.226,570.951,818.96,570.951,818.96C583.866,833.04,596.733,846.967,610.318,861.579C646.171,900.184,688.921,918.165,744.845,918.165C753.639,918.165,762.878,917.705,772.337,916.789C852.502,909.071,901.239,866.088,930.353,777.449C953.535,706.763,948.312,633.785,914.382,554.346C886.388,488.815,843.452,425.749,779.262,355.865C708.003,278.28,624.424,205.523,512.261,123.812C497.989,134.293,483.605,144.939,469.643,155.554C363.941,236.106,284.81,308.62,220.633,383.732C159.895,454.876,121.699,517.453,100.429,580.664C69.474,672.672,74.62,753.541,116.173,827.911C143.124,876.168,178.702,903.948,225.001,912.85C244.63,916.639,263.376,918.562,280.727,918.562C280.727,918.562,280.736,918.562,280.736,918.562C280.736,918.562,280.736,918.562,280.736,918.562M280.724,998.564C257.75,998.564,234.07,996.081,209.836,991.399C135.994,977.2,82.332,931.379,46.331,866.916C-9.532,766.933,-11.27,661.792,24.609,555.15C52.991,470.809,102.592,398.788,159.793,331.785C237.155,241.242,326.677,163.922,421.159,91.921C451.041,69.2,481.461,47.321,511.042,25.5C512.223,25.929,513.372,26.434,514.482,27.02C630.725,108.823,741.748,196.742,838.188,301.746C899.05,368.007,952.331,439.528,987.955,522.912C1026.813,613.893,1037.434,707.675,1006.374,802.377C970.489,911.618,900.487,984.82,780.005,996.42C768.088,997.572,756.372,998.164,744.845,998.164C670.953,998.164,605.332,973.767,551.699,916.018C538.681,902.018,525.74,888.018,511.999,873.038C500.859,885.358,490.178,896.978,479.717,908.776C423.693,971.975,355.922,998.567,280.724,998.564C280.724,998.564,280.724,998.564,280.724,998.564C280.724,998.564,280.724,998.564,280.724,998.564" class="icon-likestroke"/><glyph unicode="&#x006c;" d="M75.621,0C75.621,0,273.619,0,273.619,0C273.619,0,273.619,750.958,273.619,750.958C273.619,750.958,75.621,750.958,75.621,750.958C75.621,750.958,75.621,0,75.621,0C75.621,0,75.621,0,75.621,0M735.223,746.642C754.021,743.79,776.915,736.329,803.978,724.261C831.114,712.119,854.666,696.539,874.853,677.303C894.967,658.139,912.668,630.345,928.028,594.066C943.315,557.787,950.922,514.779,950.922,464.969C950.922,464.969,950.922,0,950.922,0C950.922,0,740.49,0,740.49,0C740.49,0,740.49,473.6,740.49,473.6C740.49,502.053,732.517,524.8,716.499,541.842C700.481,558.885,675.831,567.442,642.478,567.442C623.022,567.442,605.98,563.858,591.425,556.763C576.796,549.595,566.41,542.135,560.119,534.382C553.902,526.555,549.002,516.974,545.564,505.637C542.126,494.226,540.371,486.4,540.371,482.158C540.371,477.842,540.371,474.99,540.371,473.6C540.371,473.6,540.371,0,540.371,0C540.371,0,342.373,0,342.373,0C342.373,0,342.373,750.958,342.373,750.958C342.373,750.958,540.371,750.958,540.371,750.958C540.371,750.958,540.371,691.2,540.371,691.2C557.047,705.39,566.41,713.216,568.531,714.679C570.579,716.069,575.845,719.287,584.183,724.261C592.449,729.234,599.397,732.818,604.956,734.939C610.515,737.061,617.463,739.547,625.802,742.4C634.14,745.253,642.771,747.374,651.841,748.837C660.837,750.226,670.199,750.958,680.001,750.958C680.001,750.958,680.001,750.958,680.001,750.958C698.067,750.958,716.499,749.495,735.223,746.642C735.223,746.642,735.223,746.642,735.223,746.642M173.559,1024C201.354,1024,224.979,1014.053,244.435,994.158C263.818,974.19,273.546,950.053,273.546,921.6C273.546,893.147,263.818,868.937,244.362,849.042C224.906,829.147,201.354,819.2,173.559,819.2C145.765,819.2,122.14,829.147,102.684,849.042C83.228,868.937,73.5,893.147,73.5,921.6C73.5,950.053,83.228,974.19,102.684,994.158C122.14,1014.053,145.765,1024,173.559,1024C173.559,1024,173.559,1024,173.559,1024" class="icon-linkedin"/><glyph unicode="&#x006d;" d="M361.412,120.471C361.412,120.471,361.412,180.706,361.412,180.706C361.412,180.706,1024,180.706,1024,180.706C1024,180.706,1024,120.471,1024,120.471C1024,120.471,361.412,120.471,361.412,120.471C361.412,120.471,361.412,120.471,361.412,120.471M361.412,542.118C361.412,542.118,1024,542.118,1024,542.118C1024,542.118,1024,481.882,1024,481.882C1024,481.882,361.412,481.882,361.412,481.882C361.412,481.882,361.412,542.118,361.412,542.118C361.412,542.118,361.412,542.118,361.412,542.118M361.412,903.529C361.412,903.529,1024,903.529,1024,903.529C1024,903.529,1024,843.294,1024,843.294C1024,843.294,361.412,843.294,361.412,843.294C361.412,843.294,361.412,903.529,361.412,903.529C361.412,903.529,361.412,903.529,361.412,903.529M0,301.176C0,301.176,301.176,301.176,301.176,301.176C301.176,301.176,301.176,0,301.176,0C301.176,0,0,0,0,0C0,0,0,301.176,0,301.176C0,301.176,0,301.176,0,301.176M60.235,60.265C60.235,60.265,240.941,60.265,240.941,60.265C240.941,60.265,240.941,240.971,240.941,240.971C240.941,240.971,60.235,240.971,60.235,240.971C60.235,240.971,60.235,60.265,60.235,60.265C60.235,60.265,60.235,60.265,60.235,60.265M0,662.588C0,662.588,301.176,662.588,301.176,662.588C301.176,662.588,301.176,361.412,301.176,361.412C301.176,361.412,0,361.412,0,361.412C0,361.412,0,662.588,0,662.588C0,662.588,0,662.588,0,662.588M60.235,421.677C60.235,421.677,240.941,421.677,240.941,421.677C240.941,421.677,240.941,602.383,240.941,602.383C240.941,602.383,60.235,602.383,60.235,602.383C60.235,602.383,60.235,421.677,60.235,421.677C60.235,421.677,60.235,421.677,60.235,421.677M0,1024C0,1024,301.176,1024,301.176,1024C301.176,1024,301.176,722.824,301.176,722.824C301.176,722.824,0,722.824,0,722.824C0,722.824,0,1024,0,1024C0,1024,0,1024,0,1024M60.235,783.089C60.235,783.089,240.941,783.089,240.941,783.089C240.941,783.089,240.941,963.795,240.941,963.795C240.941,963.795,60.235,963.795,60.235,963.795C60.235,963.795,60.235,783.089,60.235,783.089C60.235,783.089,60.235,783.089,60.235,783.089" class="icon-list"/><glyph unicode="&#x006e;" d="M938.667,128C938.667,128,85.333,128,85.333,128C38.187,128,0,166.229,0,213.333C0,213.333,0,810.667,0,810.667C0,857.771,38.187,896,85.333,896C85.333,896,938.667,896,938.667,896C985.813,896,1024,857.813,1024,810.667C1024,810.667,1024,213.333,1024,213.333C1024,166.229,985.813,128,938.667,128C938.667,128,938.667,128,938.667,128M85.333,298.667C85.333,251.52,123.52,213.333,170.667,213.333C170.667,213.333,853.333,213.333,853.333,213.333C900.48,213.333,938.667,251.563,938.667,298.667C938.667,298.667,938.667,725.333,938.667,725.333C938.667,744.704,931.968,762.368,921.088,776.661C749.696,605.312,572.331,427.904,572.331,427.904C539.008,394.581,484.992,394.581,451.669,427.904C451.669,427.904,274.304,605.312,102.912,776.661C92.032,762.368,85.333,744.704,85.333,725.333C85.333,725.333,85.333,298.667,85.333,298.667C85.333,298.667,85.333,298.667,85.333,298.667M189.568,810.667C322.133,678.101,451.669,548.565,451.669,548.565C484.992,515.243,539.008,515.243,572.331,548.565C572.331,548.565,701.867,678.101,834.432,810.667C834.432,810.667,189.568,810.667,189.568,810.667C189.568,810.667,189.568,810.667,189.568,810.667" class="icon-mail"/><glyph unicode="&#x006f;" d="M967.111,114C967.111,114,56.889,114,56.889,114C25.486,114,0,139.486,0,170.889C0,170.889,0,853.556,0,853.556C0,884.958,25.486,910.444,56.889,910.444C56.889,910.444,967.111,910.444,967.111,910.444C998.514,910.444,1024,884.958,1024,853.556C1024,853.556,1024,170.889,1024,170.889C1024,139.486,998.514,114,967.111,114C967.111,114,967.111,114,967.111,114M113.778,284.667C113.778,253.264,139.264,227.778,170.667,227.778C170.667,227.778,853.333,227.778,853.333,227.778C884.736,227.778,910.222,253.264,910.222,284.667C910.222,284.667,910.222,739.778,910.222,739.778C910.222,744.329,908.629,748.425,907.605,752.635C736.313,581.342,552.22,397.25,552.22,397.25C530.034,375.006,493.966,375.006,471.78,397.25C471.78,397.25,287.687,581.342,116.395,752.635C115.371,748.425,113.778,744.329,113.778,739.778C113.778,739.778,113.778,284.667,113.778,284.667C113.778,284.667,113.778,284.667,113.778,284.667M233.301,796.667C352.996,676.972,471.78,558.132,471.78,558.132C494.023,535.888,530.034,535.888,552.22,558.132C552.22,558.132,671.004,676.916,790.699,796.667C790.699,796.667,233.301,796.667,233.301,796.667C233.301,796.667,233.301,796.667,233.301,796.667" class="icon-mailsmall"/><glyph unicode="&#x0070;" d="M883.362,523.228C900.992,591.516,900.992,659.803,883.362,728.137C865.685,796.425,832.379,856.06,783.396,907.044C734.413,958.027,676.964,992.496,611.002,1010.498C545.041,1028.501,479.079,1028.501,413.117,1010.498C347.155,992.496,289.66,958.027,240.677,907.044C191.741,856.06,158.388,796.425,140.757,728.137C123.081,659.803,123.081,591.516,140.757,523.228C158.388,454.941,191.555,395.445,240.212,344.834C240.212,344.834,512.06,0,512.06,0C512.06,0,783.908,344.834,783.908,344.834C832.565,395.445,865.685,454.941,883.362,523.228C883.362,523.228,883.362,523.228,883.362,523.228M768.929,638.684C768.929,568.024,743.949,507.924,693.943,458.29C643.983,408.656,583.51,383.815,512.525,383.815C441.539,383.815,381.067,408.609,331.107,458.29C281.147,507.924,256.167,568.071,256.167,638.684C256.167,709.298,281.147,769.631,331.107,819.591C381.067,869.55,441.539,894.53,512.525,894.53C583.464,894.53,643.937,869.55,693.943,819.591C743.949,769.631,768.929,709.298,768.929,638.684C768.929,638.684,768.929,638.684,768.929,638.684" class="icon-mapmarker"/><glyph unicode="&#x0071;" d="M0,120.5C0,120.5,0,180.735,0,180.735C0,180.735,1024,180.735,1024,180.735C1024,180.735,1024,120.5,1024,120.5C1024,120.5,0,120.5,0,120.5C0,120.5,0,120.5,0,120.5M0,542.147C0,542.147,1024,542.147,1024,542.147C1024,542.147,1024,481.912,1024,481.912C1024,481.912,0,481.912,0,481.912C0,481.912,0,542.147,0,542.147C0,542.147,0,542.147,0,542.147M0,903.559C0,903.559,1024,903.559,1024,903.559C1024,903.559,1024,843.324,1024,843.324C1024,843.324,0,843.324,0,843.324C0,843.324,0,903.559,0,903.559C0,903.559,0,903.559,0,903.559" class="icon-menu"/><glyph unicode="&#x0072;" d="M1020.88,39.461C1020.88,39.461,981.751,0,981.751,0C981.751,0,512.41,472.569,512.41,472.569C512.41,472.569,43.129,0.06,43.129,0.06C43.129,0.06,4,39.522,4,39.522C4,39.522,473.25,512,473.25,512C473.25,512,4,984.478,4,984.478C4,984.478,43.129,1023.94,43.129,1023.94C43.129,1023.94,512.41,551.431,512.41,551.431C512.41,551.431,981.751,1024,981.751,1024C981.751,1024,1020.88,984.539,1020.88,984.539C1020.88,984.539,551.569,512,551.569,512C551.569,512,1020.88,39.461,1020.88,39.461C1020.88,39.461,1020.88,39.461,1020.88,39.461" class="icon-menuclose"/><glyph unicode="&#x0073;" d="M0,0C0,0,0,113.778,0,113.778C0,113.778,1024,113.778,1024,113.778C1024,113.778,1024,0,1024,0C1024,0,0,0,0,0C0,0,0,0,0,0M0,568.889C0,568.889,1024,568.889,1024,568.889C1024,568.889,1024,455.111,1024,455.111C1024,455.111,0,455.111,0,455.111C0,455.111,0,568.889,0,568.889C0,568.889,0,568.889,0,568.889M0,1024C0,1024,1024,1024,1024,1024C1024,1024,1024,910.222,1024,910.222C1024,910.222,0,910.222,0,910.222C0,910.222,0,1024,0,1024C0,1024,0,1024,0,1024" class="icon-menusmall"/><glyph unicode="&#x0074;" d="M534.565,0C534.565,0,490.043,0,490.043,0C440.847,0,401,39.847,401,89.043C401,89.043,401,133.565,401,133.565C401,182.762,440.847,222.609,490.043,222.609C490.043,222.609,534.565,222.609,534.565,222.609C583.762,222.609,623.609,182.762,623.609,133.565C623.609,133.565,623.609,89.043,623.609,89.043C623.609,39.891,583.717,0,534.565,0C534.565,0,534.565,0,534.565,0M534.565,400.696C534.565,400.696,490.043,400.696,490.043,400.696C440.847,400.696,401,440.543,401,489.739C401,489.739,401,534.261,401,534.261C401,583.457,440.847,623.304,490.043,623.304C490.043,623.304,534.565,623.304,534.565,623.304C583.762,623.304,623.609,583.413,623.609,534.261C623.609,534.261,623.609,489.739,623.609,489.739C623.609,440.543,583.717,400.696,534.565,400.696C534.565,400.696,534.565,400.696,534.565,400.696M534.565,801.391C534.565,801.391,490.043,801.391,490.043,801.391C440.847,801.391,401,841.283,401,890.435C401,890.435,401,934.957,401,934.957C401,984.153,440.847,1024,490.043,1024C490.043,1024,534.565,1024,534.565,1024C583.762,1024,623.609,984.153,623.609,934.957C623.609,934.957,623.609,890.435,623.609,890.435C623.609,841.283,583.717,801.391,534.565,801.391C534.565,801.391,534.565,801.391,534.565,801.391" class="icon-more"/><glyph unicode="&#x0075;" d="M93.091,930.956C93.091,930.956,93.091,279.319,93.091,279.319C93.091,279.319,744.727,279.319,744.727,279.319C744.727,279.319,744.727,930.956,744.727,930.956C744.727,930.956,93.091,930.956,93.091,930.956M837.818,186.182C837.818,186.182,279.273,186.182,279.273,186.182C279.273,186.182,279.273,93.091,279.273,93.091C279.273,93.091,930.909,93.091,930.909,93.091C930.909,93.091,930.909,744.727,930.909,744.727C930.909,744.727,837.818,744.727,837.818,744.727C837.818,744.727,837.818,186.182,837.818,186.182M837.818,837.818C837.818,837.818,837.818,1024,837.818,1024C837.818,1024,0,1024,0,1024C0,1024,0,186.182,0,186.182C0,186.182,186.182,186.182,186.182,186.182C186.182,186.182,186.182,0,186.182,0C186.182,0,1024,0,1024,0C1024,0,1024,837.818,1024,837.818C1024,837.818,837.818,837.818,837.818,837.818C837.818,837.818,837.818,837.818,837.818,837.818M93.091,279.273C93.091,279.273,93.091,930.909,93.091,930.909C93.091,930.909,744.727,930.909,744.727,930.909C744.727,930.909,744.727,279.273,744.727,279.273C744.727,279.273,93.091,279.273,93.091,279.273C93.091,279.273,93.091,279.273,93.091,279.273M930.909,93.091C930.909,93.091,279.273,93.091,279.273,93.091C279.273,93.091,279.273,186.182,279.273,186.182C279.273,186.182,837.818,186.182,837.818,186.182C837.818,186.182,837.818,744.727,837.818,744.727C837.818,744.727,930.909,744.727,930.909,744.727C930.909,744.727,930.909,93.091,930.909,93.091C930.909,93.091,930.909,93.091,930.909,93.091" class="icon-multiplyphotos"/><glyph unicode="&#x0077;" d="M1014.505,9.542C1020.788,15.872,1024,23.366,1024,32.023C1024,40.681,1020.835,48.175,1014.505,54.505C1008.175,60.835,1000.681,64,992.023,64C992.023,64,960,64,960,64C942.639,64,927.651,70.144,914.991,82.525C902.33,94.86,896,110.033,896,128C896,128,896,960,896,960C896,977.361,889.809,992.349,877.475,1005.009C865.14,1017.67,849.967,1024,832,1024C832,1024,192,1024,192,1024C174.639,1024,159.651,1017.67,146.991,1005.009C134.33,992.349,128,977.361,128,960C128,960,128,128,128,128C128,110.639,121.809,95.697,109.475,82.991C97.14,70.33,81.967,64,64,64C64,64,32.023,64,32.023,64C23.366,64,15.872,60.835,9.542,54.505C3.165,48.175,0,40.681,0,32.023C0,23.366,3.165,15.872,9.495,9.495C15.825,3.165,23.319,0,31.977,0C31.977,0,991.977,0,991.977,0C1000.634,0.047,1008.128,3.212,1014.505,9.542C1014.505,9.542,1014.505,9.542,1014.505,9.542M384,800.023C384,791.366,380.835,783.872,374.505,777.542C368.175,771.165,360.634,768,351.977,768C351.977,768,288.023,768,288.023,768C279.366,768,271.825,771.165,265.542,777.495C259.165,783.872,256,791.366,256,800.023C256,800.023,256,864.023,256,864.023C256,872.681,259.165,880.175,265.495,886.551C271.825,892.835,279.319,896,288.023,896C288.023,896,352.023,896,352.023,896C360.681,896,368.175,892.835,374.505,886.505C380.835,880.175,384,872.681,384,864.023C384,864.023,384,800.023,384,800.023C384,800.023,384,800.023,384,800.023M384,608.023C384,599.366,380.835,591.825,374.505,585.495C368.175,579.165,360.634,576,351.977,576C351.977,576,288.023,576,288.023,576C279.366,576,271.825,579.165,265.542,585.495C259.165,591.825,256,599.366,256,608.023C256,608.023,256,672.023,256,672.023C256,680.681,259.165,688.175,265.495,694.505C271.825,700.835,279.319,704.047,288.023,704.047C288.023,704.047,352.023,704.047,352.023,704.047C360.681,704.047,368.175,700.835,374.505,694.505C380.835,688.175,384,680.681,384,672.023C384,672.023,384,608.023,384,608.023C384,608.023,384,608.023,384,608.023M384,416.023C384,407.366,380.835,399.872,374.505,393.542C368.175,387.165,360.634,384,351.977,384C351.977,384,288.023,384,288.023,384C279.366,384,271.825,387.165,265.542,393.495C259.165,399.825,256,407.366,256,416.023C256,416.023,256,480.023,256,480.023C256,488.681,259.165,496.175,265.495,502.505C271.825,508.835,279.319,512,288.023,512C288.023,512,352.023,512,352.023,512C360.681,512,368.175,508.835,374.505,502.505C380.835,496.175,384,488.681,384,480.023C384,480.023,384,416.023,384,416.023C384,416.023,384,416.023,384,416.023M576,800.023C576,791.366,572.835,783.872,566.505,777.542C560.175,771.165,552.634,768,543.977,768C543.977,768,479.977,768,479.977,768C471.319,768,463.825,771.165,457.495,777.495C451.165,783.872,448,791.366,448,800.023C448,800.023,448,864.023,448,864.023C448,872.681,451.165,880.175,457.495,886.551C463.825,892.881,471.319,896.047,479.977,896.047C479.977,896.047,543.977,896.047,543.977,896.047C552.634,896.047,560.128,892.881,566.458,886.551C572.788,880.221,575.953,872.727,575.953,864.023C575.953,864.023,575.953,800.023,575.953,800.023C575.953,800.023,576,800.023,576,800.023M576,608.023C576,599.366,572.835,591.825,566.505,585.495C560.175,579.165,552.681,576,544.023,576C544.023,576,480.023,576,480.023,576C471.366,576,463.872,579.165,457.542,585.495C451.165,591.825,448,599.366,448,608.023C448,608.023,448,672.023,448,672.023C448,680.681,451.165,688.175,457.495,694.505C463.825,700.835,471.319,704.047,479.977,704.047C479.977,704.047,543.977,704.047,543.977,704.047C552.634,704.047,560.128,700.835,566.458,694.505C572.788,688.175,575.953,680.681,575.953,672.023C575.953,672.023,575.953,608.023,575.953,608.023C575.953,608.023,576,608.023,576,608.023M576,416.023C576,407.366,572.835,399.872,566.505,393.542C560.175,387.212,552.681,384.047,544.023,384.047C544.023,384.047,480.023,384.047,480.023,384.047C471.366,384.047,463.872,387.212,457.542,393.542C451.212,399.872,448.047,407.366,448.047,416.023C448.047,416.023,448.047,480.023,448.047,480.023C448.047,488.681,451.212,496.175,457.542,502.505C463.825,508.835,471.319,512,479.977,512C479.977,512,543.977,512,543.977,512C552.634,512,560.128,508.835,566.458,502.505C572.788,496.175,575.953,488.681,575.953,480.023C575.953,480.023,575.953,416.023,575.953,416.023C575.953,416.023,576,416.023,576,416.023M630.505,246.505C636.835,240.175,640,232.681,640,224.023C640,224.023,640,96.023,640,96.023C640,87.366,636.835,79.872,630.505,73.542C624.175,67.212,616.681,64.047,608.023,64.047C608.023,64.047,416.023,64.047,416.023,64.047C407.366,64.047,399.872,67.212,393.542,73.542C387.212,79.872,384.047,87.366,384.047,96.023C384.047,96.023,384.047,224.023,384.047,224.023C384.047,232.681,387.212,240.175,393.542,246.505C399.825,252.835,407.319,256,416.023,256C416.023,256,608.023,256,608.023,256C616.634,256,624.128,252.835,630.505,246.505C630.505,246.505,630.505,246.505,630.505,246.505M768,800.023C768,791.366,764.835,783.872,758.505,777.542C752.175,771.165,744.634,768,735.977,768C735.977,768,671.977,768,671.977,768C663.319,768,655.825,771.165,649.495,777.495C643.165,783.825,640,791.319,640,799.977C640,799.977,640,864.023,640,864.023C640,872.681,643.165,880.175,649.495,886.551C655.825,892.881,663.319,896.047,671.977,896.047C671.977,896.047,735.977,896.047,735.977,896.047C744.634,896.047,752.128,892.881,758.458,886.551C764.835,880.175,768,872.681,768,864.023C768,864.023,768,800.023,768,800.023C768,800.023,768,800.023,768,800.023M768,608.023C768,599.366,764.835,591.825,758.505,585.495C752.175,579.165,744.681,576,736.023,576C736.023,576,672.023,576,672.023,576C663.366,576,655.872,579.165,649.542,585.495C643.212,591.825,640.047,599.319,640.047,608.023C640.047,608.023,640.047,672.023,640.047,672.023C640.047,680.681,643.212,688.175,649.542,694.505C655.872,700.835,663.366,704.047,672.023,704.047C672.023,704.047,736.023,704.047,736.023,704.047C744.681,704.047,752.175,700.835,758.505,694.505C764.835,688.175,768,680.681,768,672.023C768,672.023,768,608.023,768,608.023C768,608.023,768,608.023,768,608.023M768,416.023C768,407.366,764.835,399.872,758.505,393.542C752.175,387.212,744.681,384.047,736.023,384.047C736.023,384.047,672.023,384.047,672.023,384.047C663.366,384.047,655.872,387.212,649.542,393.542C643.212,399.872,640.047,407.366,640.047,416.023C640.047,416.023,640.047,480.023,640.047,480.023C640.047,488.681,643.212,496.175,649.542,502.505C655.825,508.835,663.319,512,671.977,512C671.977,512,735.977,512,735.977,512C744.634,512,752.128,508.835,758.458,502.505C764.788,496.175,767.953,488.681,767.953,480.023C767.953,480.023,767.953,416.023,767.953,416.023C767.953,416.023,768,416.023,768,416.023" class="icon-office"/><glyph unicode="&#x0078;" d="M1000.25,742.152C1000.25,742.152,425.859,167.76,425.859,167.76C394.178,136.08,342.677,136.08,310.997,167.76C310.997,167.76,23.76,454.915,23.76,454.915C-7.92,486.677,-7.92,538.097,23.76,569.777C55.522,601.539,106.942,601.539,138.622,569.777C138.622,569.777,368.346,340.053,368.346,340.053C368.346,340.053,885.307,857.014,885.307,857.014C917.068,888.694,968.488,888.694,1000.169,857.014C1031.93,825.252,1031.93,773.832,1000.25,742.152C1000.25,742.152,1000.25,742.152,1000.25,742.152" class="icon-ok"/><glyph unicode="&#x0079;" d="M1010.658,769.44C1010.658,769.44,431.56,190.342,431.56,190.342C413.77,172.553,384.97,172.553,367.225,190.342C367.225,190.342,13.342,544.225,13.342,544.225C-4.447,562.015,-4.447,590.815,13.342,608.56C31.086,626.304,59.932,626.304,77.676,608.56C77.676,608.56,399.393,286.843,399.393,286.843C399.393,286.843,946.324,833.775,946.324,833.775C964.113,851.564,992.914,851.564,1010.658,833.775C1028.447,815.985,1028.447,787.185,1010.658,769.44C1010.658,769.44,1010.658,769.44,1010.658,769.44" class="icon-okbig"/><glyph unicode="&#x007a;" d="M990.708,711.639C970.704,724.292,947.538,723.455,921.254,709.174C894.924,694.846,873.107,671.167,855.802,638.185C838.45,605.203,830.635,572.546,832.309,540.216C833.938,507.885,844.823,485.416,864.78,472.763C884.783,460.109,908.089,460.9,934.745,475.275C961.4,489.556,983.358,513.234,1000.709,546.217C1018.014,579.199,1025.69,611.855,1023.69,644.14C1021.689,676.471,1010.711,698.939,990.708,711.639C990.708,711.639,990.708,711.639,990.708,711.639M671.911,84.512C701.869,86.838,724.385,90.653,739.364,96.003C754.343,101.306,770.16,108.656,786.813,117.96C803.467,127.31,815.144,139.452,821.796,154.431C828.448,169.41,831.798,187.227,831.798,207.928C831.798,235.886,826.448,267.194,815.795,301.851C805.142,336.507,789.791,370.653,769.834,404.286C749.831,437.92,727.036,468.901,701.358,497.232C675.725,525.562,646.232,548.356,612.924,565.708C579.616,583.013,545.983,591.712,511.977,591.712C477.972,591.712,444.385,583.013,411.077,565.708C377.723,548.356,348.229,525.562,322.597,497.232C296.919,468.901,274.124,437.92,254.121,404.286C234.118,370.653,218.813,336.507,208.16,301.851C197.507,267.194,192.157,235.886,192.157,207.928C192.157,187.274,195.46,169.41,202.159,154.431C208.811,139.452,220.487,127.264,237.141,117.96C253.795,108.609,269.612,101.306,284.638,96.003C299.617,90.653,322.132,86.792,352.091,84.512C382.049,82.14,406.565,80.837,425.545,80.512C444.524,80.186,473.32,80,511.977,80C550.588,80,579.43,80.186,598.41,80.512C617.437,80.837,641.906,82.14,671.911,84.512C671.911,84.512,671.911,84.512,671.911,84.512M761.367,774.58C770.997,813.842,770.671,849.895,760.344,882.505C750.017,915.161,732.525,934.978,707.87,941.956C683.215,948.934,658.746,941.119,634.416,918.464C610.087,895.763,592.921,864.781,582.966,825.518C572.964,786.163,573.104,750.204,583.478,717.594C593.805,684.937,611.296,665.12,635.951,658.095C660.607,651.118,685.262,658.933,709.917,681.588C734.526,704.289,751.691,735.271,761.367,774.58C761.367,774.58,761.367,774.58,761.367,774.58M441.035,825.565C431.034,864.827,413.868,895.809,389.585,918.511C365.256,941.165,340.74,948.981,316.131,942.003C291.476,935.025,273.985,915.161,263.657,882.551C253.33,849.895,253.144,813.889,263.146,774.626C273.147,735.271,290.266,704.289,314.596,681.681C338.926,658.979,363.395,651.164,388.05,658.188C412.705,665.213,430.196,685.03,440.524,717.687C450.851,750.25,451.037,786.256,441.035,825.565C441.035,825.565,441.035,825.565,441.035,825.565M159.221,472.763C179.225,485.416,190.017,507.885,191.692,540.216C193.367,572.546,185.551,605.203,168.2,638.185C150.848,671.167,129.03,694.799,102.747,709.127C76.417,723.455,53.251,724.292,33.294,711.639C13.29,698.986,2.312,676.471,0.312,644.186C-1.689,611.855,5.94,579.199,23.292,546.217C40.597,513.234,62.601,489.556,89.256,475.275C115.866,460.947,139.218,460.109,159.221,472.763C159.221,472.763,159.221,472.763,159.221,472.763" class="icon-paw"/><glyph unicode="&#x0030;" d="M134,1024C134,1024,134,0.045,134,0.045C134,0.045,223.607,0,223.607,0C223.607,0,223.607,445.14,223.607,445.14C223.607,445.14,579.719,445.14,579.719,445.14C772.865,445.14,890.782,536.483,890.782,736.351C890.782,927.627,769.971,1023.822,579.719,1023.822C579.719,1023.822,134,1024,134,1024C134,1024,134,1024,134,1024M223.607,934.794C223.607,934.794,535.205,934.794,535.205,934.794C681.122,934.794,793.519,875.857,793.519,729.184C793.519,576.723,675.424,534.168,535.205,534.168C535.205,534.168,223.607,534.168,223.607,534.168C223.607,534.168,223.607,934.794,223.607,934.794C223.607,934.794,223.607,934.794,223.607,934.794" class="icon-paypal"/><glyph unicode="&#x0032;" d="M315.601,831.97C308.244,878.666,298.23,911.005,285.56,929.04C259.556,965.722,235.186,992.595,212.503,1009.607C189.819,1026.62,171.478,1028.102,157.48,1014.103C157.48,1014.103,50.397,907.02,50.397,907.02C21.021,878.359,4.519,839.481,0.892,790.435C-2.787,741.389,4.876,688.206,23.882,630.832C42.887,573.459,73.234,512.561,114.974,448.189C156.662,383.816,206.525,322.612,264.563,264.574C322.6,206.537,383.652,156.827,447.666,115.496C511.732,74.114,572.426,43.92,629.799,24.915C687.172,5.91,740.509,-1.754,789.913,1.874C839.265,5.552,878.297,22.054,907.009,51.43C907.009,51.43,1014.092,158.513,1014.092,158.513C1029.418,173.176,1028.448,193.714,1011.077,220.076C993.707,246.438,966.374,268.61,929.028,286.645C912.322,294.666,891.171,301.818,865.473,308.153C839.776,314.488,814.282,318.473,788.942,320.159C763.551,321.845,745.925,317.656,735.911,307.642C735.911,307.642,648.804,220.535,648.804,220.535C604.765,232.541,550.866,264.217,487.209,315.612C423.501,366.957,365.975,424.534,314.579,488.243C263.183,551.951,231.508,605.492,219.502,648.867C219.502,648.867,307.58,735.923,307.58,735.923C320.25,753.242,322.907,785.275,315.601,831.97C315.601,831.97,315.601,831.97,315.601,831.97" class="icon-phonesmall"/><glyph unicode="&#x0033;" d="M315.343,831.722C308.007,878.423,297.984,910.837,285.36,928.835C259.344,965.556,235.034,992.425,212.387,1009.442C189.698,1026.502,171.359,1027.994,157.37,1013.963C157.37,1013.963,50.363,906.828,50.363,906.828C21.02,878.082,4.557,839.229,0.89,790.139C-2.778,741.093,4.899,687.824,23.878,630.418C42.856,572.969,73.18,512.066,114.848,447.666C156.517,383.223,206.331,321.978,264.334,263.89C322.337,205.802,383.326,156.073,447.299,114.66C511.273,73.248,571.921,43.052,629.284,24.031C686.604,5.009,739.916,-2.668,789.261,1C838.564,4.668,877.588,21.173,906.248,50.558C906.248,50.558,1013.213,157.736,1013.213,157.736C1028.524,172.407,1027.543,192.964,1010.227,219.322C992.869,245.679,965.573,267.899,928.255,285.897C911.579,293.915,890.425,301.08,864.75,307.435C839.076,313.79,813.571,317.756,788.28,319.462C762.947,321.125,745.29,316.946,735.267,306.966C735.267,306.966,690.912,262.483,690.912,262.483C646.941,274.51,593.075,306.198,529.442,357.633C465.767,409.026,408.275,466.645,356.968,530.405C305.619,594.166,273.973,647.733,261.988,691.15C261.988,691.15,307.325,735.634,307.325,735.634C319.991,752.907,322.678,784.979,315.343,831.722C315.343,831.722,315.343,831.722,315.343,831.722" class="icon-phone-stroke"/><glyph unicode="&#x0034;" d="M882.924,523.226C865.312,454.912,832.179,395.426,783.651,344.809C783.651,344.809,512.316,0,512.316,0C512.316,0,240.981,344.809,240.981,344.809C192.411,395.468,159.32,454.912,141.709,523.226C124.097,591.539,124.097,659.81,141.709,728.124C159.32,796.437,192.581,856.052,241.45,907.052C290.318,958.01,347.715,992.508,413.556,1010.504C479.396,1028.499,545.236,1028.499,611.077,1010.504C676.917,992.508,734.271,958.01,783.182,907.052C832.051,856.094,865.312,796.437,882.966,728.124C900.535,659.81,900.535,591.497,882.924,523.226C882.924,523.226,882.924,523.226,882.924,523.226M800.581,704.372C786.85,758.443,760.923,805.648,722.843,846.031C684.763,886.371,640.074,913.705,588.774,927.947C537.475,942.19,486.176,942.19,434.877,927.947C383.535,913.662,338.846,886.371,300.766,845.988C262.686,805.648,236.759,758.443,223.028,704.372C209.297,650.301,209.297,596.23,223.028,542.159C236.759,488.088,262.558,441.011,300.382,400.926C300.382,400.926,511.804,127.928,511.804,127.928C511.804,127.928,723.227,400.926,723.227,400.926C761.051,441.011,786.807,488.088,800.581,542.159C814.312,596.187,814.312,650.258,800.581,704.372C800.581,704.372,800.581,704.372,800.581,704.372M512.444,469.069C418.246,469.069,341.873,545.443,341.873,639.64C341.873,733.838,418.246,810.211,512.444,810.211C606.642,810.211,683.015,733.838,683.015,639.64C683.015,545.443,606.642,469.069,512.444,469.069C512.444,469.069,512.444,469.069,512.444,469.069M512.444,724.926C465.324,724.926,427.159,686.718,427.159,639.64C427.159,592.52,465.324,554.355,512.444,554.355C559.564,554.355,597.729,592.52,597.729,639.64C597.729,686.718,559.522,724.926,512.444,724.926C512.444,724.926,512.444,724.926,512.444,724.926" class="icon-place"/><glyph unicode="&#x0037;" d="M986.522,166.03C1011.507,191.015,1024,221.172,1024,256.5C1024,256.5,1024,512.5,1024,512.5C1024,547.828,1011.507,577.985,986.47,602.97C961.485,628.007,931.328,640.5,896,640.5C896,640.5,128,640.5,128,640.5C92.672,640.5,62.515,628.007,37.478,602.97C12.493,578.036,0,547.828,0,512.5C0,512.5,0,256.5,0,256.5C0,221.172,12.493,190.964,37.478,165.978C62.515,140.993,92.672,128.5,128,128.5C128,128.5,128,64.5,128,64.5C128,46.478,134.144,31.322,146.483,18.983C158.822,6.644,173.978,0.5,192,0.5C192,0.5,832,0.5,832,0.5C849.306,0.5,864.307,6.695,877.005,19.034C889.651,31.374,896,46.529,896,64.551C896,64.551,896,128.5,896,128.5C931.328,128.5,961.485,140.993,986.522,166.03C986.522,166.03,986.522,166.03,986.522,166.03M896,320.5C896,302.478,889.651,287.322,877.005,274.983C864.307,262.695,849.306,256.5,832,256.5C832,256.5,192,256.5,192,256.5C173.978,256.5,158.822,262.644,146.483,274.983C134.144,287.322,128,302.529,128,320.5C128,320.5,128,448.5,128,448.5C128,465.857,134.144,480.858,146.483,493.505C158.822,506.151,173.978,512.5,192,512.5C192,512.5,832,512.5,832,512.5C849.306,512.5,864.307,506.151,877.005,493.505C889.651,480.858,896,465.857,896,448.5C896,448.5,896,320.5,896,320.5C896,320.5,896,320.5,896,320.5M320,384.039C320,401.703,313.651,416.858,301.005,429.556C288.307,442.151,273.152,448.5,255.488,448.5C237.824,448.5,222.822,442.151,210.483,429.505C198.144,416.858,192,401.652,192,384.039C192,366.375,198.144,351.322,210.483,339.034C222.822,326.644,237.978,320.5,256,320.5C274.022,320.5,289.178,326.644,301.517,338.983C313.805,351.322,320,366.324,320,384.039C320,384.039,320,384.039,320,384.039M128,704.5C128,704.5,896,704.5,896,704.5C896,704.5,896,960.5,896,960.5C896,977.857,889.651,992.807,877.005,1005.505C864.307,1018.151,849.306,1024.5,832,1024.5C832,1024.5,192,1024.5,192,1024.5C173.978,1024.5,158.822,1018.151,146.483,1005.505C134.144,992.858,128,977.857,128,960.5C128,960.5,128,704.5,128,704.5C128,704.5,128,704.5,128,704.5" class="icon-print"/><glyph unicode="&#x0038;" d="M1024,96.5C1024,180.468,1012.821,262.644,990.464,343.028C968.107,423.327,937.131,497.396,897.451,564.98C857.771,632.649,809.301,695.113,751.957,752.457C694.613,809.801,632.149,858.271,564.48,897.951C496.811,937.631,422.827,968.607,342.443,990.964C262.144,1013.321,179.968,1024.5,96,1024.5C69.376,1024.5,46.677,1015.113,27.989,996.511C9.301,977.823,0,955.124,0,928.5C0,901.791,9.301,879.177,27.989,860.489C46.677,841.801,69.376,832.5,96,832.5C196.011,832.5,291.328,812.959,382.037,773.961C472.661,734.964,550.827,682.655,616.533,616.948C682.155,551.241,734.549,473.076,773.547,382.452C812.544,291.743,832.085,196.425,832.085,96.415C832.085,69.705,841.387,47.092,860.075,28.404C878.677,9.801,901.376,0.5,928,0.5C954.624,0.5,977.323,9.801,996.011,28.489C1014.699,47.177,1024,69.791,1024,96.5C1024,96.5,1024,96.5,1024,96.5C1024,96.5,1024,96.5,1024,96.5M27.989,612.511C9.301,593.823,0,571.124,0,544.5C0,517.791,9.301,495.092,27.989,476.489C46.677,457.801,69.376,448.5,96,448.5C196.693,448.5,280.491,415.049,347.477,347.977C414.464,280.991,448,197.193,448,96.5C448,69.791,457.301,47.177,475.989,28.489C494.677,9.801,517.376,0.5,544,0.5C570.624,0.5,593.323,9.801,612.011,28.489C630.699,47.177,640,69.791,640,96.5C640,170.484,625.664,240.969,596.992,308.041C568.32,375.028,529.664,432.799,481.024,481.524C432.384,530.164,374.528,568.82,307.541,597.492C240.469,626.164,169.984,640.5,96,640.5C69.376,640.5,46.677,631.199,27.989,612.511C27.989,612.511,27.989,612.511,27.989,612.511M0,128.5C0,93.172,12.544,62.964,37.547,37.961C62.464,12.959,92.672,0.5,128,0.5C163.328,0.5,193.536,13.044,218.539,37.961C243.541,62.964,256,93.172,256,128.5C256,163.828,243.541,193.951,218.539,218.953C193.536,244.041,163.328,256.5,128,256.5C92.672,256.5,62.464,244.041,37.547,218.953C12.544,193.951,0,163.828,0,128.5C0,128.5,0,128.5,0,128.5" class="icon-rss"/><glyph unicode="&#x0039;" d="M1010.381,13.619C992.223,-4.54,962.798,-4.54,944.64,13.619C944.64,13.619,679.439,278.773,679.439,278.773C607.877,221.552,517.226,187.098,418.474,187.098C187.354,187.145,0,374.452,0,605.526C0,836.646,187.354,1024,418.428,1024C649.501,1024,836.855,836.646,836.855,605.526C836.855,506.727,802.401,416.123,745.18,344.515C745.18,344.515,1010.381,79.36,1010.381,79.36C1028.54,61.202,1028.54,31.777,1010.381,13.619C1010.381,13.619,1010.381,13.619,1010.381,13.619M648.756,835.528C521.649,962.635,315.578,962.635,188.518,835.528C61.412,708.422,61.412,502.397,188.518,375.291C315.625,248.184,521.696,248.184,648.756,375.291C775.816,502.351,775.816,708.422,648.756,835.528C648.756,835.528,648.756,835.528,648.756,835.528" class="icon-search"/><glyph unicode="&#x0021;" d="M967.611,455.611C967.611,455.611,905.488,455.611,905.488,455.611C895.76,388.425,869.023,327.042,830.224,275.273C830.224,275.273,874.598,230.9,874.598,230.9C896.841,208.656,896.841,172.646,874.598,150.459C852.354,128.216,816.344,128.216,794.157,150.459C794.157,150.459,749.727,194.889,749.727,194.889C697.958,156.262,636.575,129.695,569.446,120.024C569.446,120.024,569.446,57.389,569.446,57.389C569.446,25.986,543.96,0.5,512.557,0.5C481.154,0.5,455.668,25.986,455.668,57.389C455.668,57.389,455.668,120.024,455.668,120.024C388.539,129.695,327.213,156.319,275.387,194.889C275.387,194.889,230.9,150.459,230.9,150.459C208.656,128.216,172.646,128.216,150.459,150.459C128.216,172.703,128.216,208.713,150.459,230.9C150.459,230.9,194.832,275.273,194.832,275.273C155.977,327.042,129.24,388.425,119.512,455.611C119.512,455.611,57.389,455.611,57.389,455.611C25.986,455.611,0.5,481.097,0.5,512.5C0.5,543.903,25.986,569.389,57.389,569.389C57.389,569.389,119.512,569.389,119.512,569.389C129.24,636.575,155.977,697.958,194.776,749.727C194.776,749.727,150.459,794.1,150.459,794.1C128.216,816.344,128.216,852.354,150.459,874.541C172.646,896.784,208.713,896.784,230.9,874.541C230.9,874.541,275.33,830.111,275.33,830.111C327.156,868.738,388.482,895.305,455.611,904.976C455.611,904.976,455.611,967.611,455.611,967.611C455.611,999.014,481.097,1024.5,512.5,1024.5C543.903,1024.5,569.389,999.014,569.389,967.611C569.389,967.611,569.389,904.976,569.389,904.976C636.518,895.305,697.844,868.738,749.67,830.111C749.67,830.111,794.1,874.541,794.1,874.541C816.344,896.784,852.354,896.784,874.541,874.541C896.784,852.297,896.784,816.287,874.541,794.1C874.541,794.1,830.168,749.784,830.168,749.784C869.023,697.958,895.76,636.575,905.488,569.389C905.488,569.389,967.611,569.389,967.611,569.389C999.014,569.389,1024.5,543.903,1024.5,512.5C1024.5,481.097,999.014,455.611,967.611,455.611C967.611,455.611,967.611,455.611,967.611,455.611M512.5,796.944C355.43,796.944,228.056,669.627,228.056,512.5C228.056,355.43,355.43,228.056,512.5,228.056C669.57,228.056,796.944,355.43,796.944,512.5C796.944,669.627,669.57,796.944,512.5,796.944C512.5,796.944,512.5,796.944,512.5,796.944" class="icon-settingssmall"/><glyph unicode="&#x0022;" d="M512,0C229.248,0,0,229.248,0,512C0,794.752,229.248,1024,512,1024C794.752,1024,1024,794.752,1024,512C1024,229.248,794.752,0,512,0C512,0,512,0,512,0M512,938.667C276.352,938.667,85.333,747.648,85.333,512C85.333,276.395,276.352,85.333,512,85.333C747.648,85.333,938.667,276.395,938.667,512C938.667,747.648,747.648,938.667,512,938.667C512,938.667,512,938.667,512,938.667M512,213.333C488.448,213.333,469.333,232.448,469.333,256C469.333,279.552,488.448,298.667,512,298.667C535.552,298.667,554.667,279.552,554.667,256C554.667,232.448,535.552,213.333,512,213.333C512,213.333,512,213.333,512,213.333M512,341.333C488.448,341.333,469.333,360.448,469.333,384C469.333,384,469.333,768,469.333,768C469.333,791.552,488.448,810.667,512,810.667C535.552,810.667,554.667,791.552,554.667,768C554.667,768,554.667,384,554.667,384C554.667,360.448,535.552,341.333,512,341.333C512,341.333,512,341.333,512,341.333" class="icon-spam"/><glyph unicode="&#x0023;" d="M512.453,1024C512.453,1024,681.181,702.185,681.181,702.185C681.181,702.185,1024.36,632.832,1024.36,632.832C1024.36,632.832,785.443,364.637,785.443,364.637C785.443,364.637,828.869,0,828.869,0C828.869,0,512.453,156.067,512.453,156.067C512.453,156.067,196.037,0,196.037,0C196.037,0,239.418,364.637,239.418,364.637C239.418,364.637,0.5,632.879,0.5,632.879C0.5,632.879,343.68,702.231,343.68,702.231C343.68,702.231,512.453,1024,512.453,1024" class="icon-star"/><glyph unicode="&#x0024;" d="M512.479,1024C512.479,1024,681.232,702.195,681.232,702.195C681.232,702.195,1024.415,632.858,1024.415,632.858C1024.415,632.858,785.514,364.645,785.514,364.645C785.514,364.645,828.865,0,828.865,0C828.865,0,512.479,156.081,512.479,156.081C512.479,156.081,196.049,0,196.049,0C196.049,0,239.401,364.645,239.401,364.645C239.401,364.645,0.5,632.858,0.5,632.858C0.5,632.858,343.725,702.195,343.725,702.195C343.725,702.195,512.479,1024,512.479,1024" class="icon-star-stroke"/><glyph unicode="&#x0025;" d="M542.602,0C542.602,0,542.632,481.838,542.632,481.838C542.632,481.838,1024.47,481.868,1024.47,481.868C1024.47,481.868,1024.47,0,1024.47,0C1024.47,0,542.602,0,542.602,0C542.602,0,542.602,0,542.602,0M964.236,421.635C964.236,421.635,599.824,424.646,599.824,424.646C599.824,424.646,602.835,60.264,602.835,60.264C602.835,60.264,964.236,60.264,964.236,60.264C964.236,60.264,964.236,421.635,964.236,421.635C964.236,421.635,964.236,421.635,964.236,421.635M542.602,1024C542.602,1024,1024.47,1024,1024.47,1024C1024.47,1024,1024.47,542.132,1024.47,542.132C1024.47,542.132,542.602,542.132,542.602,542.132C542.602,542.132,542.602,1024,542.602,1024C542.602,1024,542.602,1024,542.602,1024M602.835,602.335C602.835,602.335,964.236,602.335,964.236,602.335C964.236,602.335,964.236,963.736,964.236,963.736C964.236,963.736,602.835,963.736,602.835,963.736C602.835,963.736,602.835,602.335,602.835,602.335C602.835,602.335,602.835,602.335,602.835,602.335M0.5,481.868C0.5,481.868,482.368,481.868,482.368,481.868C482.368,481.868,482.368,0,482.368,0C482.368,0,0.5,0,0.5,0C0.5,0,0.5,481.868,0.5,481.868C0.5,481.868,0.5,481.868,0.5,481.868M60.734,60.264C60.734,60.264,422.135,60.264,422.135,60.264C422.135,60.264,422.135,421.665,422.135,421.665C422.135,421.665,60.734,421.665,60.734,421.665C60.734,421.665,60.734,60.264,60.734,60.264C60.734,60.264,60.734,60.264,60.734,60.264M0.5,1024C0.5,1024,482.368,1024,482.368,1024C482.368,1024,482.368,542.132,482.368,542.132C482.368,542.132,0.5,542.132,0.5,542.132C0.5,542.132,0.5,1024,0.5,1024C0.5,1024,0.5,1024,0.5,1024M60.734,602.335C60.734,602.335,422.135,602.335,422.135,602.335C422.135,602.335,422.135,963.736,422.135,963.736C422.135,963.736,60.734,963.736,60.734,963.736C60.734,963.736,60.734,602.335,60.734,602.335C60.734,602.335,60.734,602.335,60.734,602.335" class="icon-tile"/><glyph unicode="&#x0026;" d="M1024,731.974C1024,745.984,1018.973,757.993,1009.012,768C1009.012,768,832,945.012,832,945.012C821.993,955.625,800.628,960.977,768,960.977C768,960.977,640,960.977,640,960.977C640,936.308,628.829,919.459,606.487,910.476C584.145,901.446,552.634,896.977,512,896.977C471.319,896.977,439.808,901.446,417.513,910.476C395.171,919.459,384,936.308,384,960.977C384,960.977,256,960.977,256,960.977C223.325,960.977,202.007,955.625,192,944.966C192,944.966,14.988,768,14.988,768C4.98,757.946,0,745.984,0,731.974C0,718.01,4.98,705.955,14.988,695.994C14.988,695.994,86.993,623.988,86.993,623.988C97.001,614.028,109.149,609.001,123.485,609.001C137.821,609.001,149.969,614.028,159.977,623.988C159.977,623.988,192,654.988,192,654.988C192,654.988,192,128,192,128C192,110.685,198.144,95.651,210.525,82.991C222.86,70.33,238.033,64,256,64C256,64,768,64,768,64C786.013,64,801.14,70.284,813.521,82.991C825.856,95.651,832,110.639,832,128C832,128,832,654.988,832,654.988C832,654.988,864.023,623.988,864.023,623.988C874.031,614.028,886.179,609.001,900.515,609.001C914.851,609.001,926.999,614.028,937.007,623.988C937.007,623.988,1009.012,695.994,1009.012,695.994C1018.973,705.955,1024,717.964,1024,731.974C1024,731.974,1024,731.974,1024,731.974" class="icon-tshirt"/><glyph unicode="&#x0027;" d="M977.578,462.932C977.578,207.258,769.156,0,512.039,0C254.922,0,46.5,207.258,46.5,462.932C46.5,462.932,139.608,462.932,139.608,462.932C139.608,258.421,306.364,92.596,512.039,92.596C614.877,92.596,707.985,134.029,775.395,201.066C842.758,268.104,884.471,360.7,884.471,462.932C884.471,644.865,752.397,795.839,578.472,827.03C578.472,827.03,591.507,814.042,591.507,814.042C609.709,795.979,609.709,766.65,591.507,748.587C573.304,730.524,543.836,730.524,525.679,748.587C525.679,748.587,426.939,846.816,426.939,846.816C408.736,864.879,408.736,894.208,426.939,912.271C426.939,912.271,525.679,1010.453,525.679,1010.453C543.836,1028.516,573.304,1028.516,591.507,1010.453C609.709,992.39,609.709,963.061,591.507,944.998C591.507,944.998,568.463,922.093,568.463,922.093C798.904,894.394,977.578,699.566,977.578,462.932C977.578,462.932,977.578,462.932,977.578,462.932" class="icon-turnleft"/><glyph unicode="&#x0028;" d="M512.039,0C254.922,0,46.5,207.258,46.5,462.932C46.5,699.519,225.174,894.301,455.616,922.093C455.616,922.093,432.572,944.998,432.572,944.998C414.369,963.107,414.369,992.39,432.572,1010.453C450.774,1028.516,480.243,1028.516,498.399,1010.453C498.399,1010.453,597.14,912.271,597.14,912.271C615.342,894.208,615.342,864.879,597.14,846.816C597.14,846.816,498.399,748.587,498.399,748.587C480.196,730.524,450.728,730.524,432.572,748.587C414.369,766.65,414.369,795.979,432.572,814.042C432.572,814.042,445.607,827.03,445.607,827.03C271.681,795.839,139.608,644.865,139.608,462.886C139.608,360.607,181.274,268.057,248.684,201.02C316.094,134.029,409.202,92.549,512.039,92.549C717.714,92.549,884.471,258.328,884.471,462.886C884.471,462.886,977.578,462.886,977.578,462.886C977.578,207.258,769.156,0,512.039,0C512.039,0,512.039,0,512.039,0" class="icon-turnright"/><glyph unicode="&#x0029;" d="M995.543,749.128C983.839,737.57,972.573,729.011,961.527,723.525C950.554,718.038,940.02,713.722,929.998,710.503C919.976,707.285,911.856,704.871,905.492,703.261C899.127,701.579,895.982,699.896,895.982,697.921C895.982,643.202,888.666,588.411,873.963,533.692C859.259,478.9,836.289,426.083,804.979,375.242C773.596,324.327,735.776,279.265,691.445,239.981C647.114,200.698,593.127,169.242,529.41,145.76C465.694,122.205,396.564,110.5,321.875,110.5C236.505,110.5,166.058,122.424,110.388,146.272C54.792,170.047,17.996,198.723,0,232.227C6.657,231.569,18.361,231.715,34.967,232.739C51.646,233.69,61.302,234.202,63.936,234.202C91.295,234.202,113.241,234.495,129.92,235.153C146.672,235.738,168.326,237.86,195.027,241.371C221.655,244.956,245.356,251.174,265.985,260.245C286.688,269.243,304.61,281.167,319.973,296.017C272.642,296.602,229.848,308.745,191.515,332.228C153.183,355.71,127.653,387.166,114.997,426.449C127.653,423.889,140.674,422.572,153.988,422.572C173.3,422.572,191.954,425.132,210.023,430.326C112.656,448.98,64.009,507.284,64.009,605.163C85.297,605.163,109.364,605.455,135.992,606.114C109.291,623.524,90.637,644.3,79.957,668.44C69.276,692.581,63.936,723.013,63.936,759.736C63.936,786.144,74.616,817.088,95.977,852.494C146.599,792.581,206.292,747.812,274.983,718.185C343.674,688.557,422.607,671.513,512,666.977C510.683,671.513,510.025,680.072,510.025,692.581C510.025,705.163,510.391,718.843,511.049,733.693C511.707,748.47,512.073,757.248,512.073,759.809C512.073,813.284,529.557,852.421,564.597,877.22C599.491,901.946,647.699,914.382,709.002,914.382C769.646,914.382,820.634,893.094,862.039,850.592C873.377,852.494,885.374,856.005,898.03,861.199C910.686,866.32,921.22,871.368,929.559,876.196C937.899,881.024,948.872,887.608,962.551,896.02C976.158,904.36,986.033,910.505,992.032,914.382C971.33,851.909,941.703,809.407,903.004,786.802C922.975,789.363,963.356,790.679,1024,790.679C1016.685,774.586,1007.175,760.76,995.543,749.128C995.543,749.128,995.543,749.128,995.543,749.128" class="icon-twitter"/><glyph unicode="&#x002a;" d="M648.256,312.516C622.989,316.535,641.613,386.017,641.613,386.017C641.613,386.017,687.062,459.521,703.245,558.362C746.778,558.362,773.664,663.444,730.125,700.414C731.949,739.335,786.08,1005.93,512,1005.93C237.917,1005.93,292.058,739.335,293.869,700.417C250.333,663.444,277.216,558.366,320.752,558.366C336.931,459.524,382.384,386.02,382.384,386.02C382.384,386.02,401.008,316.538,375.741,312.519C294.346,299.566,0,165.505,0,18.5C0,18.5,512,18.5,512,18.5C512,18.5,1024,18.5,1024,18.5C1024,165.505,729.651,299.566,648.256,312.516C648.256,312.516,648.256,312.516,648.256,312.516" class="icon-user"/><glyph unicode="&#x002b;" d="M938.667,128C938.667,128,85.333,128,85.333,128C38.187,128,0,166.187,0,213.333C0,213.333,0,810.667,0,810.667C0,857.813,38.187,896,85.333,896C85.333,896,938.667,896,938.667,896C985.813,896,1024,857.813,1024,810.667C1024,810.667,1024,213.333,1024,213.333C1024,166.187,985.771,128,938.667,128C938.667,128,938.667,128,938.667,128M938.667,725.333C938.667,772.48,900.48,810.667,853.333,810.667C853.333,810.667,170.667,810.667,170.667,810.667C123.52,810.667,85.333,772.48,85.333,725.333C85.333,725.333,85.333,298.667,85.333,298.667C85.333,251.563,123.52,213.333,170.667,213.333C170.667,213.333,853.333,213.333,853.333,213.333C900.48,213.333,938.667,251.563,938.667,298.667C938.667,298.667,938.667,725.333,938.667,725.333C938.667,725.333,938.667,725.333,938.667,725.333M810.667,298.667C810.667,298.667,213.333,298.667,213.333,298.667C189.781,298.667,170.667,317.781,170.667,341.333C170.667,364.885,189.781,384,213.333,384C213.333,384,810.667,384,810.667,384C834.219,384,853.333,364.885,853.333,341.333C853.333,317.781,834.219,298.667,810.667,298.667C810.667,298.667,810.667,298.667,810.667,298.667M810.667,469.333C810.667,469.333,213.333,469.333,213.333,469.333C189.781,469.333,170.667,488.448,170.667,512C170.667,535.552,189.781,554.667,213.333,554.667C213.333,554.667,810.667,554.667,810.667,554.667C834.219,554.667,853.333,535.552,853.333,512C853.333,488.448,834.219,469.333,810.667,469.333C810.667,469.333,810.667,469.333,810.667,469.333M810.667,640C787.115,640,768,659.115,768,682.667C768,706.219,787.115,725.333,810.667,725.333C834.219,725.333,853.333,706.219,853.333,682.667C853.333,659.115,834.219,640,810.667,640C810.667,640,810.667,640,810.667,640M682.667,640C659.115,640,640,659.115,640,682.667C640,706.219,659.115,725.333,682.667,725.333C706.219,725.333,725.333,706.219,725.333,682.667C725.333,659.115,706.219,640,682.667,640C682.667,640,682.667,640,682.667,640M554.667,640C531.115,640,512,659.115,512,682.667C512,706.219,531.115,725.333,554.667,725.333C578.219,725.333,597.333,706.219,597.333,682.667C597.333,659.115,578.219,640,554.667,640C554.667,640,554.667,640,554.667,640" class="icon-website"/><glyph unicode="&#x002c;" d="M478.999,640.5C478.999,640.5,477.975,641.524,477.975,641.524C499.991,680.855,510.976,723.165,510.976,768.547C510.976,837.853,486.819,897.384,438.458,947.048C390.144,996.666,331.311,1022.499,262.004,1024.5C262.004,1024.5,256,1024.5,256,1024.5C256,1024.5,256,985.541,256,985.541C256,985.541,338.013,903.528,338.013,903.528C367.988,873.507,383.023,837.155,383.023,794.519C383.023,751.837,368.035,715.531,338.013,685.509C307.991,655.488,271.825,640.5,229.516,640.5C187.159,640.5,151.04,655.488,121.018,685.509C121.018,685.509,37.981,768.5,37.981,768.5C37.981,768.5,0,768.5,0,768.5C0,768.5,0,762.496,0,762.496C2.001,693.143,27.648,634.17,76.986,585.483C126.324,536.843,185.996,512.5,256,512.5C300.637,512.5,342.668,523.811,381.999,546.525C382.65,546.525,382.976,545.827,382.976,544.523C382.976,544.523,797.975,9.53,797.975,9.53C804.631,3.525,833.489,0.5,884.503,0.5C935.517,0.5,964.329,3.525,970.985,9.483C970.985,9.483,1014.97,53.469,1014.97,53.469C1020.975,60.171,1024,89.029,1024,140.043C1024,191.057,1020.975,219.869,1014.97,226.525C1014.97,226.525,1014.97,226.525,1014.97,226.525C1014.97,226.525,1014.97,226.525,1014.97,226.525C1014.97,226.525,478.999,640.5,478.999,640.5C478.999,640.5,478.999,640.5,478.999,640.5M830.976,129.012C830.976,146.699,837.306,161.687,849.967,174.021C862.627,186.356,877.801,192.5,895.488,192.5C913.129,192.5,928.163,186.356,940.497,174.021C952.832,161.64,958.976,146.699,958.976,129.012C958.976,111.325,952.785,96.151,940.497,83.491C928.163,70.83,913.129,64.5,895.488,64.5C877.801,64.5,862.627,70.83,849.967,83.491C837.306,96.151,830.976,111.325,830.976,129.012C830.976,129.012,830.976,129.012,830.976,129.012" class="icon-wrench"/></font>
</defs>
</svg>
